<svg width="199" height="196" viewBox="0 0 199 196" fill="none" xmlns="http://www.w3.org/2000/svg">
<path d="M188.66 34.08V156.42H14.21V34.08C14.2087 32.4591 14.527 30.8539 15.1467 29.3561C15.7663 27.8584 16.6753 26.4975 17.8214 25.3514C18.9675 24.2052 20.3284 23.2963 21.8262 22.6766C23.3239 22.057 24.9291 21.7387 26.55 21.74H176.32C179.593 21.74 182.732 23.0401 185.046 25.3543C187.36 27.6685 188.66 30.8072 188.66 34.08Z" stroke="#EDEDED" stroke-width="1.64" stroke-linecap="round" stroke-linejoin="round"/>
<path d="M188.66 34.08V34.63H14.21V34.08C14.2087 32.4591 14.527 30.8539 15.1467 29.3561C15.7663 27.8584 16.6753 26.4975 17.8214 25.3514C18.9675 24.2052 20.3284 23.2963 21.8262 22.6766C23.3239 22.057 24.9291 21.7387 26.55 21.74H176.32C179.593 21.74 182.732 23.0401 185.046 25.3543C187.36 27.6685 188.66 30.8072 188.66 34.08Z" stroke="#DDDDDD" stroke-width="1.64" stroke-linecap="round" stroke-linejoin="round"/>
<path d="M165.05 28.1899C165.05 28.6349 164.918 29.07 164.671 29.44C164.424 29.81 164.072 30.0984 163.661 30.2687C163.25 30.439 162.798 30.4835 162.361 30.3967C161.925 30.3099 161.524 30.0956 161.209 29.7809C160.894 29.4663 160.68 29.0654 160.593 28.6289C160.506 28.1924 160.551 27.74 160.721 27.3289C160.892 26.9178 161.18 26.5664 161.55 26.3191C161.92 26.0719 162.355 25.9399 162.8 25.9399C163.397 25.9399 163.969 26.177 164.391 26.599C164.813 27.0209 165.05 27.5932 165.05 28.1899Z" fill="#EDEDED"/>
<path d="M172.37 28.1899C172.37 28.6349 172.238 29.07 171.991 29.44C171.744 29.81 171.392 30.0984 170.981 30.2687C170.57 30.439 170.118 30.4835 169.681 30.3967C169.245 30.3099 168.844 30.0956 168.529 29.7809C168.214 29.4663 168 29.0654 167.913 28.6289C167.826 28.1924 167.871 27.74 168.041 27.3289C168.212 26.9178 168.5 26.5664 168.87 26.3191C169.24 26.0719 169.675 25.9399 170.12 25.9399C170.717 25.9399 171.289 26.177 171.711 26.599C172.133 27.0209 172.37 27.5932 172.37 28.1899Z" fill="#DDDDDD"/>
<path d="M179.69 28.1899C179.69 28.6349 179.558 29.07 179.311 29.44C179.064 29.81 178.712 30.0984 178.301 30.2687C177.89 30.439 177.438 30.4835 177.001 30.3967C176.565 30.3099 176.164 30.0956 175.849 29.7809C175.534 29.4663 175.32 29.0654 175.233 28.6289C175.146 28.1924 175.191 27.74 175.361 27.3289C175.532 26.9178 175.82 26.5664 176.19 26.3191C176.56 26.0719 176.995 25.9399 177.44 25.9399C178.037 25.9399 178.609 26.177 179.031 26.599C179.453 27.0209 179.69 27.5932 179.69 28.1899Z" fill="#EDEDED"/>
<path d="M17.93 87.27C17.48 82.15 40.07 72.46 43.78 79.94L36.44 87.27C36.44 87.27 21.17 93.3 17.93 87.27Z" fill="#93BEE5"/>
<path d="M29 50.6901C25.7 40.4901 25.47 39.2401 27.66 38.4501C29.85 37.6601 35.43 49.2801 36.06 50.6901C38.2663 55.1533 39.9669 59.8491 41.13 64.6901C42.13 69.2101 43.38 79.6301 43.59 82.1401C44.45 92.7301 26.99 95.9401 26.23 87.7101C25.47 79.4801 25.39 76.8101 25.39 76.8101C25.39 76.8101 16.39 77.6701 15.12 70.9301C14.3271 65.6594 14.0225 60.3268 14.21 55.0001C14.21 55.0001 0.51002 52.7301 1.00002 49.1201C1.49002 45.5101 28.29 52.8101 28.29 52.8101L29 50.6901Z" fill="#B25E47"/>
<path d="M14.21 55.0001C14.21 55.0001 0.51002 52.7301 1.00002 49.1201C1.49002 45.5101 28.29 52.8101 28.29 52.8101L29 50.6901C25.7 40.4901 25.47 39.2401 27.66 38.4501C29.85 37.6601 35.43 49.2801 36.06 50.6901" stroke="#934735" stroke-width="0.61" stroke-linecap="round" stroke-linejoin="round"/>
<path d="M28.27 52.8101C27.1101 57.3167 27.3084 62.0658 28.84 66.4601" stroke="#934735" stroke-width="0.61" stroke-linecap="round" stroke-linejoin="round"/>
<path d="M21.85 45C24 46.12 25.69 46.36 26.33 43.3C26.97 40.24 24 40.14 23 40.3C21.47 40.55 20.93 44.51 21.85 45Z" fill="#683F1D"/>
<path d="M22.28 44.2002C21.8 45.8402 21.45 47.8902 21.46 47.8302C21.82 48.0102 23.88 48.7202 24.2 48.0102C24.5221 46.7591 24.7494 45.4855 24.88 44.2002H22.28Z" fill="#683F1D"/>
<path d="M20.34 48.8502C19.21 53.8502 13.41 81.4102 13.22 82.3102C13.03 83.2102 13.28 87.3702 13.64 87.5302C14 87.6902 16 84.7102 16.75 83.2002C17.5 81.6902 24 51.4802 24.41 50.0702C25.41 46.6402 21.08 45.5702 20.34 48.8502Z" fill="#683F1D"/>
<path d="M15.23 64.4801C12.42 65.1301 11.62 67.8101 13.7 69.5901C15.93 71.5001 21.42 70.5901 21.7 68.2001C21.98 65.8101 17.57 63.9401 15.23 64.4801Z" fill="#B25E47" stroke="#934735" stroke-width="0.61" stroke-linecap="round" stroke-linejoin="round"/>
<path d="M15 60.0801C12.12 59.6601 11.41 62.5101 13.47 64.7601C15.53 67.0101 22.32 67.4701 22.7 64.8401C23.08 62.2101 16.75 60.3401 15 60.0801Z" fill="#B25E47" stroke="#934735" stroke-width="0.61" stroke-linecap="round" stroke-linejoin="round"/>
<path d="M12.43 55.16C16.05 54.3 23.89 59.62 23.58 61.27C23.2 63.34 19.51 63.66 14.26 61.43C9.34 59.35 10.65 55.58 12.43 55.16Z" fill="#B25E47" stroke="#934735" stroke-width="0.61" stroke-linecap="round" stroke-linejoin="round"/>
<path d="M186.79 95.0899C175.55 94.5399 166.24 104.69 163.36 116.34C163.27 116.66 163.2 117.02 163.13 117.4C162.82 119.194 162.607 121.003 162.49 122.82C161.29 138.2 162.42 168.82 162.49 169.5C162.54 169.75 154.49 169.5 143.44 168.98C139.36 168.79 134.85 168.58 130.17 168.34C106.33 167.17 78.0201 165.59 78.0201 165.59L76.3101 146.48C76.3101 146.48 72.7401 152.48 60.5501 164.29C48.3601 176.1 28.8501 169.5 30.9501 154.69C32.2601 145.39 37.7601 138.58 44.4101 127.2C46.4101 123.67 48.6301 119.71 50.8201 115.1C53.7301 108.97 56.5701 103.1 59.2801 97.8299C60.4701 95.4999 61.6401 93.2899 62.7701 91.1999C67.0501 83.3099 70.8901 77.3299 73.9801 74.5399C83.2701 66.1399 103.16 70.9799 108.46 72.6799C116.37 75.2509 124.577 76.7968 132.88 77.2799C144.64 78.0999 162.49 83.1699 171.95 86.4599C177.418 88.2913 182.452 91.2252 186.74 95.0799L186.79 95.0899Z" fill="#A7CAF0"/>
<path d="M194.7 112.55C184.41 102.22 168.78 97.7099 153.1 111.69C134.86 127.94 120.86 130.76 100.34 107.03C85.5001 89.8699 80.3401 85.4899 62.8101 91.1999C67.0901 83.3099 70.9301 77.3299 74.0201 74.5399C83.3101 66.1399 103.2 70.9799 108.5 72.6799C116.41 75.2509 124.617 76.7968 132.92 77.2799C144.68 78.0999 162.53 83.1699 171.99 86.4599C177.458 88.2913 182.492 91.2252 186.78 95.0799V95.0799C190.83 98.3199 193.23 104.81 194.7 112.55Z" fill="#C3DCF8"/>
<path d="M59.0001 142.08C52.4701 149.19 46.5501 133.76 44.4301 127.2C46.4301 123.67 48.65 119.71 50.84 115.1C53.75 108.97 56.5901 103.1 59.3001 97.8298C64.1301 105.22 57.6001 111.99 57.1401 115.34C56.0001 124.28 68.4201 131.87 59.0001 142.08Z" fill="#93BEE5"/>
<path d="M17.9301 87.2699C28.0501 89.3999 43.7801 79.9399 43.7801 79.9399C43.7801 79.9399 52.4501 118.63 54.7101 127.21C56.9701 135.79 71.4501 169.4 43.2401 170.78C25.1401 171.66 23.9201 137.25 22.8601 125.92C21.8001 114.59 17.9301 87.2699 17.9301 87.2699Z" fill="#A7CAF0"/>
<path d="M24.6401 91.69C32.4301 92.24 41.1101 87 41.1101 87" stroke="#83ADDF" stroke-width="0.61" stroke-linecap="round" stroke-linejoin="round"/>
<path d="M43.78 79.9399C43.78 79.9399 52.45 118.63 54.71 127.21C55.95 131.89 60.82 144.02 60.41 154.3" stroke="#83ADDF" stroke-width="0.61" stroke-linecap="round" stroke-linejoin="round"/>
<path d="M100.34 79C105.34 88.37 118.78 97.37 134.94 84.94C134.94 84.94 136.68 79.78 136.5 79.78C136.32 79.78 102.63 75.7 102.63 75.7L100.34 79Z" fill="white"/>
<path d="M113.64 67.38C109.48 66.44 103.44 67.49 99.2801 73.88C95.1201 80.27 94.5901 85.55 94.8301 85.49C95.0701 85.43 101.34 81.49 104.21 81.74C107.306 82.266 110.365 82.9875 113.37 83.9L113.64 67.38Z" fill="#FED81D"/>
<path d="M132.4 69.25C132.4 69.25 141.6 69.31 142.84 75.76C144.08 82.21 140.67 89.94 136.5 93.52C132.33 97.1 134.63 88.36 119.68 84.26L132.4 69.25Z" fill="#FED81D"/>
<path d="M136.89 76.7899C136.89 76.7899 131.78 84.5599 120.39 84.7399C109 84.9199 106.81 78.1199 106.81 78.1199C108.04 75.0399 109.53 68.4699 110.48 63.8599C111.08 60.9499 111.48 58.8599 111.48 58.8599C111.48 58.8599 113.36 40.6199 132.92 41.7199L133.25 44.7199L136.89 76.7899Z" fill="#B25E47"/>
<path d="M110.48 64C111.08 61.09 111.48 59 111.48 59L122.61 53.78C122.61 53.78 124.37 66.49 110.48 64Z" fill="#914839"/>
<path d="M76.3401 146.48C74.7701 128.48 74.7701 113.96 74.7701 113.96" stroke="#83ADDF" stroke-width="0.61" stroke-linecap="round" stroke-linejoin="round"/>
<path d="M150.65 190.17C149.696 189.821 148.787 189.361 147.94 188.8C142.24 185.04 141.75 177.71 143.48 168.98C144.82 162.29 147.48 154.78 150.05 147.42C152.99 139.03 155.87 130.84 156.68 124.29C156.8 123.37 156.87 122.49 156.9 121.65C157.048 116.619 157.969 111.641 159.63 106.89C164.33 93.66 174.63 85.33 186.78 95.08C190.78 98.31 193.22 104.8 194.69 112.54C195.22 115.3 195.63 118.22 195.97 121.2C197.09 131.33 197.24 142.2 197.74 150.33C200.19 189.63 190.78 205.31 150.65 190.17Z" fill="#A7CAF0"/>
<path d="M194.7 112.55C185.85 103.66 173.02 99.08 159.63 106.89C164.33 93.66 174.63 85.33 186.78 95.08C190.83 98.32 193.23 104.81 194.7 112.55Z" fill="#C3DCF8"/>
<path d="M162.53 169.5C162.58 169.75 154.53 169.5 143.48 168.98C139.4 168.79 134.89 168.58 130.21 168.34C122.21 164.73 117.21 159.51 121.48 152.03C133.1 131.7 154.48 159.87 155.56 139.71C156.31 125.9 159.66 122.91 162.49 122.82C161.29 138.2 162.42 168.8 162.53 169.5Z" fill="#93BEE5"/>
<path d="M165.26 110.34C163.671 114.324 162.736 118.538 162.49 122.82C161.42 138.21 162.42 168.82 162.49 169.5" stroke="#83ADDF" stroke-width="0.61" stroke-linecap="round" stroke-linejoin="round"/>
<path d="M150.65 190.17C149.696 189.821 148.787 189.361 147.94 188.8C157.13 190.8 170.87 192.55 176.94 187.38C186.49 179.25 180.42 168.83 185.7 163.09C190.98 157.35 198.59 155.5 195.98 121.24C197.1 131.37 197.25 142.24 197.75 150.37C200.19 189.63 190.78 205.31 150.65 190.17Z" fill="#93BEE5"/>
<path d="M127.65 121.22C129.11 114.65 120.87 114.95 120.87 114.95C121.6 108.89 113.58 107.22 111.73 113.12C105.22 111.12 103.16 113.12 102.21 116.55L127.65 121.22Z" fill="#DDDDDD"/>
<path d="M116.54 115.58C117.617 115.58 118.49 114.707 118.49 113.63C118.49 112.553 117.617 111.68 116.54 111.68C115.463 111.68 114.59 112.553 114.59 113.63C114.59 114.707 115.463 115.58 116.54 115.58Z" fill="#F9F9F9" stroke="#DDDDDD" stroke-width="0.82" stroke-linecap="round" stroke-linejoin="round"/>
<path d="M89.83 111.69L77.67 177.63L125.96 187.38L138.93 121.35L89.83 111.69Z" fill="#F9F9F9" stroke="#DDDDDD" stroke-width="0.82" stroke-linecap="round" stroke-linejoin="round"/>
<path d="M104.71 155.38C102.24 161.8 102.1 168.54 103.23 170.8C103.23 170.8 107.84 171.65 112.44 159.16L104.71 155.38Z" fill="#93BEE5"/>
<path d="M111 143C99.95 139.21 94.67 136.91 92.68 136.37C90.69 135.83 83.5 135.23 82.35 136.37C81.8426 136.916 81.4957 137.592 81.3475 138.322C81.1993 139.052 81.2555 139.81 81.51 140.51C81.89 142.04 80.67 143.15 80.51 144.7C80.35 146.25 82.2 146.7 81.81 148.24C81.42 149.78 80.21 151.45 81.05 153.14C81.89 154.83 80.21 156.58 81.81 158.65C83.41 160.72 99.7 161.71 103.27 160.95L110.27 164.08C110.27 164.08 122.62 151.35 111 143Z" fill="#B25E47"/>
<path d="M92.64 136.34C90.64 135.81 83.46 135.2 82.31 136.34C81.8026 136.886 81.4557 137.562 81.3075 138.292C81.1593 139.023 81.2155 139.78 81.47 140.48C81.85 142.01 80.63 143.12 80.47 144.67C80.31 146.22 82.16 146.67 81.77 148.21C81.38 149.75 80.17 151.42 81.01 153.11C81.85 154.8 80.17 156.55 81.77 158.62" stroke="#934735" stroke-width="0.61" stroke-linecap="round" stroke-linejoin="round"/>
<path d="M177 187.38C174.13 192.57 166.93 195.08 153.28 190.95C149.59 189.84 146.03 188.68 142.63 187.51C136.99 185.58 131.79 183.6 127.13 181.71C119.003 178.478 111.046 174.833 103.29 170.79C105.335 168.517 106.984 165.918 108.17 163.1C108.915 161.428 109.527 159.699 110 157.93C111.275 153.038 111.614 147.949 111 142.93C112.86 143.49 114.86 144.057 117 144.63C122.09 146.02 127.79 147.47 133.57 148.99C150.89 153.55 168.9 158.78 173.29 165.28C173.69 165.87 174.07 166.48 174.43 167.1C174.57 167.34 174.72 167.59 174.85 167.84C174.89 167.905 174.927 167.971 174.96 168.04C175.12 168.33 175.28 168.64 175.43 168.94C175.703 169.467 175.953 169.997 176.18 170.53C178.69 176.48 179.42 182.92 177 187.38Z" fill="#A7CAF0"/>
<path d="M111 143C130.83 149 166.79 155.79 173.25 165.35C174.366 167.012 175.333 168.768 176.14 170.6" stroke="#83ADDF" stroke-width="0.61" stroke-linecap="round" stroke-linejoin="round"/>
<path d="M116.92 144.67C118.15 157.1 111.73 169.03 111.73 169.03" stroke="#83ADDF" stroke-width="0.61" stroke-linecap="round" stroke-linejoin="round"/>
<path d="M176.94 187.38C174.07 192.57 166.87 195.08 153.22 190.95C149.53 189.84 145.97 188.68 142.57 187.51C150.56 189.62 169.5 193.72 176.94 187.38Z" fill="#93BEE5"/>
<path d="M132.92 41.8299L133.26 44.8299C126.33 55.6199 116.87 58.9999 111.48 58.9999C102.58 56.7799 99.54 48.7699 99.02 40.1799C98.8863 38.1223 98.8796 36.0584 99 33.9999C99.4188 28.1704 100.424 22.3979 102 16.7699C102 16.7699 128.73 4.32992 130.58 29.2999C130.58 29.2999 136.31 28.2999 137.38 34.6299C138.21 39.8899 132.92 41.8299 132.92 41.8299Z" fill="#B25E47"/>
<path d="M103.29 34.0301C103.881 34.0301 104.36 33.5511 104.36 32.9601C104.36 32.3692 103.881 31.8901 103.29 31.8901C102.699 31.8901 102.22 32.3692 102.22 32.9601C102.22 33.5511 102.699 34.0301 103.29 34.0301Z" fill="#683F1D"/>
<path d="M110.73 32.67C111.321 32.67 111.8 32.191 111.8 31.6C111.8 31.0091 111.321 30.53 110.73 30.53C110.139 30.53 109.66 31.0091 109.66 31.6C109.66 32.191 110.139 32.67 110.73 32.67Z" fill="#683F1D"/>
<path d="M109.1 25.8601C109.22 27.3101 114.2 27.8601 114.48 27.0501C114.91 25.8001 108.84 22.4401 109.1 25.8601Z" fill="#604730"/>
<path d="M99.61 27.9999C99.61 28.7899 105.03 29.1599 104.83 26.3599C104.7 24.3699 99.73 25.8399 99.61 27.9999Z" fill="#604730"/>
<path d="M129.13 37.1899C131.36 33.8899 134.89 34.2499 135.26 34.8799" stroke="#934735" stroke-width="0.61" stroke-linecap="round" stroke-linejoin="round"/>
<path d="M130.08 36.06C133.37 34.13 135.16 38.46 131 38.46" stroke="#934735" stroke-width="0.61" stroke-linecap="round" stroke-linejoin="round"/>
<path d="M106.17 29.8601C107.07 31.6101 107 32.6601 106.4 33.7901C105.8 34.9201 103.99 37.4701 104.94 39.7301" stroke="#934735" stroke-width="0.61" stroke-linecap="round" stroke-linejoin="round"/>
<path d="M112 40.1201C111.21 42.8301 108 44.5301 106.45 44.1801C106.45 44.1801 108 48.3901 110.73 47.3101C113.87 46.0801 112 40.1201 112 40.1201Z" fill="white" stroke="#934735" stroke-width="0.61" stroke-linecap="round" stroke-linejoin="round"/>
<path d="M128.64 41.05C129.258 41.4749 129.959 41.7641 130.696 41.8985C131.434 42.0329 132.192 42.0096 132.92 41.8301" stroke="#934735" stroke-width="0.61" stroke-linecap="round" stroke-linejoin="round"/>
<path d="M138.35 26.72C141.43 30.94 136.81 32.72 136.81 32.72C136.338 32.0439 135.719 31.4833 135 31.08C134.545 30.813 134.037 30.6505 133.512 30.6044C132.987 30.5584 132.458 30.6298 131.964 30.8137C131.47 30.9976 131.023 31.2892 130.655 31.6673C130.288 32.0455 130.009 32.5008 129.84 33C123.55 33.13 126.26 28.22 126.26 28.22C120.62 30.47 120.44 24.7 122.87 22.09C118.47 27.03 112.87 22.09 113.79 17.64C112.23 22.5 106.68 22.64 107.42 18.64C106.943 19.4712 106.365 20.2404 105.7 20.93C101.88 24.76 98.47 20.66 99.9 17.63C94.18 23.08 91.7 16.98 97.16 13.7C92.84 10.16 97.94 5.12003 101.43 7.70003C100.64 1.43003 107.1 1.15003 109.94 4.81003C111.06 -2.07997 119.68 1.68003 120.03 4.95003C126.38 0.510026 131.3 3.79003 130.66 11C133.23 7.57003 138.73 9.58002 136.66 18.38C141.89 18 142.8 24.57 138.35 26.72Z" fill="#604730"/>
<path d="M135 31.0801C134.545 30.8131 134.037 30.6506 133.512 30.6045C132.987 30.5585 132.458 30.63 131.964 30.8138C131.47 30.9977 131.023 31.2893 130.655 31.6675C130.288 32.0456 130.009 32.5009 129.84 33.0001C123.55 33.1301 126.26 28.2201 126.26 28.2201C120.62 30.4701 120.44 24.7001 122.87 22.0901C118.47 27.0301 112.87 22.0901 113.79 17.6401C112.23 22.5001 106.68 22.6401 107.42 18.6401C106.943 19.4714 106.365 20.2405 105.7 20.9301C104.16 16.2601 107.61 10.1001 112.88 12.9301C113.57 9.18013 122.19 6.75013 122.14 16.2501C125.33 11.7901 132.55 13.3201 129.14 21.8101C131.82 19.6901 138 23.1701 135 31.0801Z" fill="#473526"/>
<path d="M123.43 32.7301C124.19 34.2501 122.76 36.5101 120.23 37.7801C117.7 39.0501 115.03 38.7801 114.23 37.3101C113.43 35.8401 114.9 33.5301 117.43 32.2601C119.96 30.9901 122.66 31.2101 123.43 32.7301Z" fill="#A0503D"/>
<path d="M102.34 38.52C101.95 39.6 100.63 40.18 99.0001 40.15C98.8742 38.1019 98.8742 36.0481 99.0001 34C101.42 35.06 102.9 37 102.34 38.52Z" fill="#A0503D"/>
</svg>
