<svg width="82" height="18" viewBox="0 0 82 18" fill="none" xmlns="http://www.w3.org/2000/svg">
<path d="M1.19725 6.84225C11.6078 6.21966 22.0146 5.56452 32.4176 4.87683L63.6358 2.84203C69.5238 2.46019 75.4104 2.03754 81.2995 1.69241L81.2701 0.757992C72.236 2.11728 63.2057 3.5949 54.207 5.02659L27.354 9.28448L12.1149 11.6973C11.4908 11.7946 11.4751 12.7345 12.1464 12.697L42.5142 11.0403L51.1349 10.5722L50.9675 9.58092C44.4089 10.937 37.8625 12.2899 31.3285 13.6398C30.7342 13.7647 30.9472 14.6321 31.4963 14.6433L47.2312 14.8657L47.0581 13.8255C44.556 14.5539 42.0228 15.2098 39.5527 16.0352C39.0056 16.2199 39.112 17.107 39.7253 17.059C40.1374 17.046 40.5809 16.9789 41.0053 16.9614C41.1321 16.9574 41.2522 16.9037 41.339 16.8121C41.4259 16.7205 41.4725 16.5986 41.4685 16.473C41.4646 16.3475 41.4104 16.2287 41.3179 16.1428C41.2255 16.0568 41.1023 16.0108 40.9755 16.0148C40.5633 16.0278 40.1214 16.0131 39.6923 16.0144L39.869 17.0381C42.3945 16.3989 44.8772 15.5812 47.3749 14.8448C47.4988 14.8057 47.6044 14.7236 47.6721 14.6137C47.7399 14.5037 47.7653 14.3733 47.7437 14.2463C47.7221 14.1194 47.655 14.0044 47.5547 13.9226C47.4544 13.8407 47.3276 13.7974 47.1976 13.8007L31.464 13.6191L31.6317 14.6186C38.19 13.2544 44.7362 11.8974 51.2703 10.5476C51.836 10.4317 51.6507 9.52668 51.1028 9.55622L20.7313 11.2253L12.1149 11.6973L12.1464 12.697L39.1836 8.39247L66.2417 4.09544C71.3035 3.29037 76.3699 2.50148 81.4304 1.65561C81.9558 1.56959 81.813 0.7041 81.2778 0.74141C70.8761 1.51484 60.4658 2.14559 50.0617 2.84149C39.6576 3.53739 29.2493 4.23342 18.8458 4.94972C12.9588 5.36149 7.07191 5.77735 1.18515 6.19728C0.772976 6.21028 0.793191 6.85091 1.20498 6.82567L1.19725 6.84225Z" fill="#3EAB59"/>
</svg>
