<svg width="152" height="44" viewBox="0 0 152 44" fill="none" xmlns="http://www.w3.org/2000/svg">
<rect x="70" width="82" height="44" rx="3" fill="#93B8E9"/>
<path d="M29.0065 30H23.3225L22.8185 27.004L22.7905 26.92L20.0465 26.864L17.7505 26.976L17.2745 30H11.7865L17.2745 11.884H24.0505L29.0065 30ZM21.9505 22.832L20.7185 16.896H20.3825L18.8145 22.832L20.3825 22.86L21.9505 22.832ZM38.5943 11.576C40.1996 11.576 41.7116 11.828 43.1303 12.332L42.1783 16.784L41.8143 17.008C41.3289 16.7467 40.7689 16.5413 40.1343 16.392C39.4996 16.224 38.9116 16.14 38.3703 16.14C37.2316 16.14 36.4103 16.476 35.9063 17.148C35.4023 17.8013 35.1503 18.9027 35.1503 20.452C35.1503 22.2627 35.4396 23.588 36.0183 24.428C36.5969 25.2493 37.5023 25.66 38.7343 25.66C39.2569 25.66 39.8356 25.6133 40.4703 25.52C41.1236 25.408 41.6929 25.2587 42.1783 25.072L42.6263 25.352L42.1783 29.776C41.0583 30.1307 39.7609 30.308 38.2863 30.308C35.2809 30.308 33.0129 29.524 31.4823 27.956C29.9703 26.388 29.2143 24.1013 29.2143 21.096C29.2143 18.072 30.0263 15.7293 31.6503 14.068C33.2929 12.4067 35.6076 11.576 38.5943 11.576ZM57.5971 25.52L57.9051 25.912L57.5691 30H44.8011L45.0811 24.68L44.8011 11.884H57.7931L58.1011 12.276L57.7371 16.364L53.2851 16.196H50.4011L50.3451 18.744H53.1171L56.0291 18.66L56.3371 19.052L56.0011 23.14L52.7531 23.056H50.2331L50.2051 24.12L50.2611 25.688H52.9491L57.5971 25.52Z" fill="white"/>
<path d="M91.997 24.036L92.053 26.528C92.053 27.704 91.857 28.6933 91.465 29.496C91.073 30.2987 90.4196 30.9893 89.505 31.568C88.609 32.1467 87.3583 32.6693 85.753 33.136L84.297 30.252V29.804C85.249 29.3373 85.9116 28.852 86.285 28.348C86.677 27.844 86.873 27.1813 86.873 26.36V24.596L86.677 15.832L84.297 15.916L83.989 15.552L84.213 11.884H92.305L91.997 24.036ZM102.198 15.356C104.438 15.356 106.164 15.972 107.378 17.204C108.61 18.436 109.226 20.1813 109.226 22.44C109.226 24.9413 108.544 26.8827 107.182 28.264C105.838 29.6267 103.934 30.308 101.47 30.308C99.2295 30.308 97.4935 29.6827 96.2615 28.432C95.0482 27.1627 94.4415 25.3893 94.4415 23.112C94.4415 20.648 95.1135 18.744 96.4575 17.4C97.8202 16.0373 99.7335 15.356 102.198 15.356ZM101.722 19.472C101.199 19.472 100.807 19.5467 100.546 19.696C100.303 19.8267 100.126 20.0973 100.014 20.508C99.9202 20.9187 99.8735 21.5533 99.8735 22.412C99.8735 23.588 99.9295 24.456 100.042 25.016C100.154 25.576 100.35 25.9587 100.63 26.164C100.91 26.3693 101.348 26.472 101.946 26.472C102.487 26.472 102.879 26.4067 103.122 26.276C103.383 26.1267 103.56 25.856 103.654 25.464C103.747 25.0533 103.794 24.4187 103.794 23.56C103.794 22.3653 103.738 21.488 103.626 20.928C103.532 20.368 103.336 19.9853 103.038 19.78C102.758 19.5747 102.319 19.472 101.722 19.472ZM121.593 22.636C122.545 22.916 123.226 23.3173 123.637 23.84C124.066 24.344 124.281 25.0067 124.281 25.828C124.281 27.34 123.618 28.4413 122.293 29.132C120.967 29.8227 118.97 30.168 116.301 30.168C115.087 30.168 113.305 30.112 110.953 30L111.205 25.828L110.953 15.636H118.205C119.997 15.636 121.387 15.9533 122.377 16.588C123.385 17.2227 123.889 18.156 123.889 19.388C123.889 20.0787 123.693 20.704 123.301 21.264C122.909 21.824 122.339 22.2813 121.593 22.636ZM118.513 20.172C118.513 19.8733 118.438 19.6493 118.289 19.5C118.158 19.3507 117.925 19.248 117.589 19.192C117.253 19.136 116.73 19.108 116.021 19.108L115.965 21.32L117.477 21.404C117.85 21.2733 118.111 21.124 118.261 20.956C118.429 20.7693 118.513 20.508 118.513 20.172ZM117.309 26.724C117.813 26.724 118.205 26.6307 118.485 26.444C118.783 26.2573 118.933 25.9773 118.933 25.604C118.933 25.3987 118.858 25.2213 118.709 25.072C118.559 24.9227 118.307 24.7733 117.953 24.624L115.881 24.68L115.853 25.296L115.909 26.64C116.469 26.696 116.935 26.724 117.309 26.724ZM132.614 15.356C134.126 15.356 135.601 15.608 137.038 16.112L136.282 20.424L135.554 20.62C134.901 20.1907 134.219 19.8453 133.51 19.584C132.819 19.3227 132.278 19.192 131.886 19.192C131.494 19.192 131.298 19.3133 131.298 19.556C131.298 19.7987 131.429 19.9947 131.69 20.144C131.97 20.2933 132.427 20.4893 133.062 20.732C133.902 21.0307 134.602 21.3387 135.162 21.656C135.741 21.9547 136.235 22.4027 136.646 23C137.075 23.5787 137.29 24.3253 137.29 25.24C137.29 26.136 137.066 26.9667 136.618 27.732C136.189 28.4973 135.489 29.1227 134.518 29.608C133.547 30.0933 132.315 30.336 130.822 30.336C129.142 30.336 127.453 30.0747 125.754 29.552L126.51 25.044L126.986 24.68C127.714 25.2587 128.507 25.7347 129.366 26.108C130.225 26.4813 130.934 26.668 131.494 26.668C131.942 26.668 132.166 26.5187 132.166 26.22C132.166 25.996 132.035 25.8187 131.774 25.688C131.531 25.5387 131.093 25.3427 130.458 25.1C129.618 24.8013 128.909 24.4933 128.33 24.176C127.751 23.8587 127.247 23.4013 126.818 22.804C126.389 22.188 126.174 21.4133 126.174 20.48C126.174 19.5093 126.426 18.6413 126.93 17.876C127.434 17.092 128.171 16.476 129.142 16.028C130.113 15.58 131.27 15.356 132.614 15.356Z" fill="white"/>
</svg>
