<svg width="141" height="72" viewBox="0 0 141 72" fill="none" xmlns="http://www.w3.org/2000/svg">
<rect x="59" y="8" width="82" height="44" rx="3" fill="#93B8E9"/>
<path d="M94 7C94 5.89543 94.8954 5 96 5H103C104.105 5 105 5.89543 105 7H94Z" fill="#93B8E9"/>
<path d="M87 3C87 1.34315 88.3431 0 90 0H109C110.657 0 112 1.34315 112 3V7H108.82C107.743 7 106.796 6.28585 106.5 5.25C106.204 4.21415 105.257 3.5 104.18 3.5H94.82C93.7427 3.5 92.796 4.21415 92.5 5.25C92.204 6.28585 91.2573 7 90.18 7H87V3Z" fill="#93B8E9"/>
<path d="M17.5065 38H11.8225L11.3185 35.004L11.2905 34.92L8.54647 34.864L6.25047 34.976L5.77447 38H0.286469L5.77447 19.884H12.5505L17.5065 38ZM10.4505 30.832L9.21847 24.896H8.88247L7.31447 30.832L8.88247 30.86L10.4505 30.832ZM27.0943 19.576C28.6996 19.576 30.2116 19.828 31.6303 20.332L30.6783 24.784L30.3143 25.008C29.8289 24.7467 29.2689 24.5413 28.6343 24.392C27.9996 24.224 27.4116 24.14 26.8703 24.14C25.7316 24.14 24.9103 24.476 24.4063 25.148C23.9023 25.8013 23.6503 26.9027 23.6503 28.452C23.6503 30.2627 23.9396 31.588 24.5183 32.428C25.0969 33.2493 26.0023 33.66 27.2343 33.66C27.7569 33.66 28.3356 33.6133 28.9703 33.52C29.6236 33.408 30.1929 33.2587 30.6783 33.072L31.1263 33.352L30.6783 37.776C29.5583 38.1307 28.2609 38.308 26.7863 38.308C23.7809 38.308 21.5129 37.524 19.9823 35.956C18.4703 34.388 17.7143 32.1013 17.7143 29.096C17.7143 26.072 18.5263 23.7293 20.1503 22.068C21.7929 20.4067 24.1076 19.576 27.0943 19.576ZM46.0971 33.52L46.4051 33.912L46.0691 38H33.3011L33.5811 32.68L33.3011 19.884H46.2931L46.6011 20.276L46.2371 24.364L41.7851 24.196H38.9011L38.8451 26.744H41.6171L44.5291 26.66L44.8371 27.052L44.5011 31.14L41.2531 31.056H38.7331L38.7051 32.12L38.7611 33.688H41.4491L46.0971 33.52Z" fill="black"/>
<path d="M80.997 32.036L81.053 34.528C81.053 35.704 80.857 36.6933 80.465 37.496C80.073 38.2987 79.4196 38.9893 78.505 39.568C77.609 40.1467 76.3583 40.6693 74.753 41.136L73.297 38.252V37.804C74.249 37.3373 74.9116 36.852 75.285 36.348C75.677 35.844 75.873 35.1813 75.873 34.36V32.596L75.677 23.832L73.297 23.916L72.989 23.552L73.213 19.884H81.305L80.997 32.036ZM91.1975 23.356C93.4375 23.356 95.1642 23.972 96.3775 25.204C97.6095 26.436 98.2255 28.1813 98.2255 30.44C98.2255 32.9413 97.5442 34.8827 96.1815 36.264C94.8375 37.6267 92.9335 38.308 90.4695 38.308C88.2295 38.308 86.4935 37.6827 85.2615 36.432C84.0482 35.1627 83.4415 33.3893 83.4415 31.112C83.4415 28.648 84.1135 26.744 85.4575 25.4C86.8202 24.0373 88.7335 23.356 91.1975 23.356ZM90.7215 27.472C90.1988 27.472 89.8068 27.5467 89.5455 27.696C89.3028 27.8267 89.1255 28.0973 89.0135 28.508C88.9202 28.9187 88.8735 29.5533 88.8735 30.412C88.8735 31.588 88.9295 32.456 89.0415 33.016C89.1535 33.576 89.3495 33.9587 89.6295 34.164C89.9095 34.3693 90.3482 34.472 90.9455 34.472C91.4868 34.472 91.8788 34.4067 92.1215 34.276C92.3828 34.1267 92.5602 33.856 92.6535 33.464C92.7468 33.0533 92.7935 32.4187 92.7935 31.56C92.7935 30.3653 92.7375 29.488 92.6255 28.928C92.5322 28.368 92.3362 27.9853 92.0375 27.78C91.7575 27.5747 91.3188 27.472 90.7215 27.472ZM110.593 30.636C111.545 30.916 112.226 31.3173 112.637 31.84C113.066 32.344 113.281 33.0067 113.281 33.828C113.281 35.34 112.618 36.4413 111.293 37.132C109.967 37.8227 107.97 38.168 105.301 38.168C104.087 38.168 102.305 38.112 99.9528 38L100.205 33.828L99.9528 23.636H107.205C108.997 23.636 110.387 23.9533 111.377 24.588C112.385 25.2227 112.889 26.156 112.889 27.388C112.889 28.0787 112.693 28.704 112.301 29.264C111.909 29.824 111.339 30.2813 110.593 30.636ZM107.513 28.172C107.513 27.8733 107.438 27.6493 107.289 27.5C107.158 27.3507 106.925 27.248 106.589 27.192C106.253 27.136 105.73 27.108 105.021 27.108L104.965 29.32L106.477 29.404C106.85 29.2733 107.111 29.124 107.261 28.956C107.429 28.7693 107.513 28.508 107.513 28.172ZM106.309 34.724C106.813 34.724 107.205 34.6307 107.485 34.444C107.783 34.2573 107.933 33.9773 107.933 33.604C107.933 33.3987 107.858 33.2213 107.709 33.072C107.559 32.9227 107.307 32.7733 106.953 32.624L104.881 32.68L104.853 33.296L104.909 34.64C105.469 34.696 105.935 34.724 106.309 34.724ZM121.614 23.356C123.126 23.356 124.601 23.608 126.038 24.112L125.282 28.424L124.554 28.62C123.901 28.1907 123.219 27.8453 122.51 27.584C121.819 27.3227 121.278 27.192 120.886 27.192C120.494 27.192 120.298 27.3133 120.298 27.556C120.298 27.7987 120.429 27.9947 120.69 28.144C120.97 28.2933 121.427 28.4893 122.062 28.732C122.902 29.0307 123.602 29.3387 124.162 29.656C124.741 29.9547 125.235 30.4027 125.646 31C126.075 31.5787 126.29 32.3253 126.29 33.24C126.29 34.136 126.066 34.9667 125.618 35.732C125.189 36.4973 124.489 37.1227 123.518 37.608C122.547 38.0933 121.315 38.336 119.822 38.336C118.142 38.336 116.453 38.0747 114.754 37.552L115.51 33.044L115.986 32.68C116.714 33.2587 117.507 33.7347 118.366 34.108C119.225 34.4813 119.934 34.668 120.494 34.668C120.942 34.668 121.166 34.5187 121.166 34.22C121.166 33.996 121.035 33.8187 120.774 33.688C120.531 33.5387 120.093 33.3427 119.458 33.1C118.618 32.8013 117.909 32.4933 117.33 32.176C116.751 31.8587 116.247 31.4013 115.818 30.804C115.389 30.188 115.174 29.4133 115.174 28.48C115.174 27.5093 115.426 26.6413 115.93 25.876C116.434 25.092 117.171 24.476 118.142 24.028C119.113 23.58 120.27 23.356 121.614 23.356Z" fill="white"/>
<path d="M1.55469 69H0.273438L3.15234 61H4.54688L7.42578 69H6.14453L3.88281 62.4531H3.82031L1.55469 69ZM1.76953 65.8672H5.92578V66.8828H1.76953V65.8672ZM10.2053 65.4375V69H9.0373V63H10.1584V63.9766H10.2326C10.3706 63.6589 10.5868 63.4036 10.8811 63.2109C11.1779 63.0182 11.5516 62.9219 12.0021 62.9219C12.411 62.9219 12.7691 63.0078 13.0764 63.1797C13.3837 63.349 13.6219 63.6016 13.7912 63.9375C13.9605 64.2734 14.0451 64.6888 14.0451 65.1836V69H12.8771V65.3242C12.8771 64.8893 12.7639 64.5495 12.5373 64.3047C12.3107 64.0573 11.9995 63.9336 11.6037 63.9336C11.3329 63.9336 11.092 63.9922 10.8811 64.1094C10.6727 64.2266 10.5074 64.3984 10.385 64.625C10.2652 64.849 10.2053 65.1198 10.2053 65.4375ZM16.685 71.25C16.5105 71.25 16.3516 71.2357 16.2084 71.207C16.0652 71.181 15.9584 71.1523 15.8881 71.1211L16.1693 70.1641C16.3829 70.2214 16.573 70.2461 16.7396 70.2383C16.9063 70.2305 17.0535 70.168 17.1811 70.0508C17.3113 69.9336 17.4258 69.7422 17.5248 69.4766L17.6693 69.0781L15.474 63H16.724L18.2436 67.6562H18.3061L19.8256 63H21.0795L18.6068 69.8008C18.4923 70.1133 18.3464 70.3776 18.1693 70.5938C17.9923 70.8125 17.7813 70.9766 17.5365 71.0859C17.2917 71.1953 17.0079 71.25 16.685 71.25ZM25.0504 69.1211C24.4879 69.1211 23.997 68.9922 23.5777 68.7344C23.1585 68.4766 22.8329 68.1159 22.6012 67.6523C22.3694 67.1888 22.2535 66.6471 22.2535 66.0273C22.2535 65.4049 22.3694 64.8607 22.6012 64.3945C22.8329 63.9284 23.1585 63.5664 23.5777 63.3086C23.997 63.0508 24.4879 62.9219 25.0504 62.9219C25.6129 62.9219 26.1038 63.0508 26.523 63.3086C26.9423 63.5664 27.2678 63.9284 27.4996 64.3945C27.7314 64.8607 27.8473 65.4049 27.8473 66.0273C27.8473 66.6471 27.7314 67.1888 27.4996 67.6523C27.2678 68.1159 26.9423 68.4766 26.523 68.7344C26.1038 68.9922 25.6129 69.1211 25.0504 69.1211ZM25.0543 68.1406C25.4189 68.1406 25.721 68.0443 25.9605 67.8516C26.2001 67.6589 26.3772 67.4023 26.4918 67.082C26.609 66.7617 26.6676 66.4089 26.6676 66.0234C26.6676 65.6406 26.609 65.2891 26.4918 64.9687C26.3772 64.6458 26.2001 64.3867 25.9605 64.1914C25.721 63.9961 25.4189 63.8984 25.0543 63.8984C24.6871 63.8984 24.3824 63.9961 24.1402 64.1914C23.9007 64.3867 23.7223 64.6458 23.6051 64.9687C23.4905 65.2891 23.4332 65.6406 23.4332 66.0234C23.4332 66.4089 23.4905 66.7617 23.6051 67.082C23.7223 67.4023 23.9007 67.6589 24.1402 67.8516C24.3824 68.0443 24.6871 68.1406 25.0543 68.1406ZM30.8689 65.4375V69H29.701V63H30.8221V63.9766H30.8963C31.0343 63.6589 31.2505 63.4036 31.5447 63.2109C31.8416 63.0182 32.2153 62.9219 32.6658 62.9219C33.0747 62.9219 33.4327 63.0078 33.74 63.1797C34.0473 63.349 34.2856 63.6016 34.4549 63.9375C34.6242 64.2734 34.7088 64.6888 34.7088 65.1836V69H33.5408V65.3242C33.5408 64.8893 33.4275 64.5495 33.201 64.3047C32.9744 64.0573 32.6632 63.9336 32.2674 63.9336C31.9966 63.9336 31.7557 63.9922 31.5447 64.1094C31.3364 64.2266 31.171 64.3984 31.0486 64.625C30.9288 64.849 30.8689 65.1198 30.8689 65.4375ZM39.4111 69.1211C38.82 69.1211 38.3109 68.9948 37.8838 68.7422C37.4593 68.487 37.1312 68.1289 36.8994 67.668C36.6702 67.2044 36.5557 66.6615 36.5557 66.0391C36.5557 65.4245 36.6702 64.8828 36.8994 64.4141C37.1312 63.9453 37.4541 63.5794 37.8682 63.3164C38.2848 63.0534 38.7718 62.9219 39.3291 62.9219C39.6676 62.9219 39.9958 62.9779 40.3135 63.0898C40.6312 63.2018 40.9163 63.3776 41.1689 63.6172C41.4215 63.8568 41.6208 64.168 41.7666 64.5508C41.9124 64.931 41.9854 65.3932 41.9854 65.9375V66.3516H37.2158V65.4766H40.8408C40.8408 65.1693 40.7783 64.8971 40.6533 64.6602C40.5283 64.4206 40.3525 64.2318 40.126 64.0937C39.902 63.9557 39.639 63.8867 39.3369 63.8867C39.0088 63.8867 38.7223 63.9674 38.4775 64.1289C38.2354 64.2878 38.0479 64.4961 37.915 64.7539C37.7848 65.0091 37.7197 65.2865 37.7197 65.5859V66.2695C37.7197 66.6706 37.79 67.0117 37.9307 67.293C38.0739 67.5742 38.2731 67.7891 38.5283 67.9375C38.7835 68.0833 39.0817 68.1562 39.4229 68.1562C39.6442 68.1562 39.846 68.125 40.0283 68.0625C40.2106 67.9974 40.3682 67.901 40.501 67.7734C40.6338 67.6458 40.7354 67.4883 40.8057 67.3008L41.9111 67.5C41.8226 67.8255 41.6637 68.1107 41.4346 68.3555C41.208 68.5977 40.9229 68.7865 40.5791 68.9219C40.238 69.0547 39.8486 69.1211 39.4111 69.1211Z" fill="black"/>
<path d="M74.5105 63.6016H73.2918C73.2449 63.3411 73.1577 63.112 73.0301 62.9141C72.9025 62.7161 72.7462 62.5482 72.5613 62.4102C72.3764 62.2721 72.1694 62.168 71.9402 62.0977C71.7137 62.0273 71.4728 61.9922 71.2176 61.9922C70.7566 61.9922 70.3439 62.1081 69.9793 62.3398C69.6173 62.5716 69.3309 62.9115 69.1199 63.3594C68.9116 63.8073 68.8074 64.3542 68.8074 65C68.8074 65.651 68.9116 66.2005 69.1199 66.6484C69.3309 67.0964 69.6186 67.4349 69.9832 67.6641C70.3478 67.8932 70.7579 68.0078 71.2137 68.0078C71.4663 68.0078 71.7059 67.974 71.9324 67.9062C72.1616 67.8359 72.3686 67.7331 72.5535 67.5977C72.7384 67.4622 72.8947 67.2969 73.0223 67.1016C73.1525 66.9036 73.2423 66.6771 73.2918 66.4219L74.5105 66.4258C74.4454 66.819 74.3191 67.181 74.1316 67.5117C73.9467 67.8398 73.7085 68.1237 73.4168 68.3633C73.1277 68.6003 72.797 68.7839 72.4246 68.9141C72.0522 69.0443 71.646 69.1094 71.2059 69.1094C70.5132 69.1094 69.896 68.9453 69.3543 68.6172C68.8126 68.2865 68.3855 67.8138 68.073 67.1992C67.7632 66.5846 67.6082 65.8516 67.6082 65C67.6082 64.1458 67.7645 63.4128 68.077 62.8008C68.3895 62.1862 68.8165 61.7148 69.3582 61.3867C69.8999 61.056 70.5158 60.8906 71.2059 60.8906C71.6303 60.8906 72.0262 60.9518 72.3934 61.0742C72.7632 61.194 73.0952 61.3711 73.3895 61.6055C73.6837 61.8372 73.9272 62.1211 74.1199 62.457C74.3126 62.7904 74.4428 63.1719 74.5105 63.6016ZM78.1572 69.1328C77.777 69.1328 77.4333 69.0625 77.126 68.9219C76.8187 68.7786 76.5752 68.5716 76.3955 68.3008C76.2184 68.0299 76.1299 67.6979 76.1299 67.3047C76.1299 66.9661 76.195 66.6875 76.3252 66.4687C76.4554 66.25 76.6312 66.0768 76.8525 65.9492C77.0739 65.8216 77.3213 65.7253 77.5947 65.6602C77.8682 65.5951 78.1468 65.5456 78.4307 65.5117C78.79 65.4701 79.0817 65.4362 79.3057 65.4102C79.5296 65.3815 79.6924 65.3359 79.7939 65.2734C79.8955 65.2109 79.9463 65.1094 79.9463 64.9687V64.9414C79.9463 64.6003 79.8499 64.3359 79.6572 64.1484C79.4671 63.9609 79.1833 63.8672 78.8057 63.8672C78.4124 63.8672 78.1025 63.9544 77.876 64.1289C77.652 64.3008 77.4971 64.4922 77.4111 64.7031L76.3135 64.4531C76.4437 64.0885 76.6338 63.7943 76.8838 63.5703C77.1364 63.3437 77.4268 63.1797 77.7549 63.0781C78.083 62.974 78.4281 62.9219 78.79 62.9219C79.0296 62.9219 79.2835 62.9505 79.5518 63.0078C79.8226 63.0625 80.0752 63.1641 80.3096 63.3125C80.5465 63.4609 80.7406 63.6732 80.8916 63.9492C81.0426 64.2227 81.1182 64.5781 81.1182 65.0156V69H79.9775V68.1797H79.9307C79.8551 68.3307 79.7419 68.4792 79.5908 68.625C79.4398 68.7708 79.2458 68.8919 79.0088 68.9883C78.7718 69.0846 78.488 69.1328 78.1572 69.1328ZM78.4111 68.1953C78.734 68.1953 79.0101 68.1315 79.2393 68.0039C79.471 67.8763 79.6468 67.7096 79.7666 67.5039C79.889 67.2956 79.9502 67.0729 79.9502 66.8359V66.0625C79.9085 66.1042 79.8278 66.1432 79.708 66.1797C79.5908 66.2135 79.4567 66.2435 79.3057 66.2695C79.1546 66.293 79.0075 66.3151 78.8643 66.3359C78.721 66.3542 78.6012 66.3698 78.5049 66.3828C78.2783 66.4115 78.0713 66.4596 77.8838 66.5273C77.6989 66.5951 77.5505 66.6927 77.4385 66.8203C77.3291 66.9453 77.2744 67.112 77.2744 67.3203C77.2744 67.6094 77.3812 67.8281 77.5947 67.9766C77.8083 68.1224 78.0804 68.1953 78.4111 68.1953ZM84.3918 65.4375V69H83.2238V63H84.3449V63.9766H84.4191C84.5572 63.6589 84.7733 63.4036 85.0676 63.2109C85.3645 63.0182 85.7382 62.9219 86.1887 62.9219C86.5975 62.9219 86.9556 63.0078 87.2629 63.1797C87.5702 63.349 87.8085 63.6016 87.9777 63.9375C88.147 64.2734 88.2316 64.6888 88.2316 65.1836V69H87.0637V65.3242C87.0637 64.8893 86.9504 64.5495 86.7238 64.3047C86.4973 64.0573 86.1861 63.9336 85.7902 63.9336C85.5194 63.9336 85.2785 63.9922 85.0676 64.1094C84.8592 64.2266 84.6939 64.3984 84.5715 64.625C84.4517 64.849 84.3918 65.1198 84.3918 65.4375Z" fill="black"/>
<path d="M114.711 69V61H119.726V62.0391H115.918V64.4766H119.465V65.5117H115.918V67.9609H119.773V69H114.711ZM123.541 69.1328C123.161 69.1328 122.817 69.0625 122.51 68.9219C122.202 68.7786 121.959 68.5716 121.779 68.3008C121.602 68.0299 121.514 67.6979 121.514 67.3047C121.514 66.9661 121.579 66.6875 121.709 66.4687C121.839 66.25 122.015 66.0768 122.236 65.9492C122.458 65.8216 122.705 65.7253 122.978 65.6602C123.252 65.5951 123.531 65.5456 123.814 65.5117C124.174 65.4701 124.465 65.4362 124.689 65.4102C124.913 65.3815 125.076 65.3359 125.178 65.2734C125.279 65.2109 125.33 65.1094 125.33 64.9687V64.9414C125.33 64.6003 125.234 64.3359 125.041 64.1484C124.851 63.9609 124.567 63.8672 124.189 63.8672C123.796 63.8672 123.486 63.9544 123.26 64.1289C123.036 64.3008 122.881 64.4922 122.795 64.7031L121.697 64.4531C121.827 64.0885 122.017 63.7943 122.267 63.5703C122.52 63.3437 122.81 63.1797 123.139 63.0781C123.467 62.974 123.812 62.9219 124.174 62.9219C124.413 62.9219 124.667 62.9505 124.935 63.0078C125.206 63.0625 125.459 63.1641 125.693 63.3125C125.93 63.4609 126.124 63.6732 126.275 63.9492C126.426 64.2227 126.502 64.5781 126.502 65.0156V69H125.361V68.1797H125.314C125.239 68.3307 125.126 68.4792 124.975 68.625C124.823 68.7708 124.629 68.8919 124.392 68.9883C124.156 69.0846 123.872 69.1328 123.541 69.1328ZM123.795 68.1953C124.118 68.1953 124.394 68.1315 124.623 68.0039C124.855 67.8763 125.031 67.7096 125.15 67.5039C125.273 67.2956 125.334 67.0729 125.334 66.8359V66.0625C125.292 66.1042 125.211 66.1432 125.092 66.1797C124.975 66.2135 124.84 66.2435 124.689 66.2695C124.538 66.293 124.391 66.3151 124.248 66.3359C124.105 66.3542 123.985 66.3698 123.889 66.3828C123.662 66.4115 123.455 66.4596 123.267 66.5273C123.083 66.5951 122.934 66.6927 122.822 66.8203C122.713 66.9453 122.658 67.112 122.658 67.3203C122.658 67.6094 122.765 67.8281 122.978 67.9766C123.192 68.1224 123.464 68.1953 123.795 68.1953ZM128.608 69V63H129.736V63.9531H129.799C129.908 63.6302 130.101 63.3763 130.377 63.1914C130.656 63.0039 130.971 62.9102 131.322 62.9102C131.395 62.9102 131.481 62.9128 131.58 62.918C131.682 62.9232 131.761 62.9297 131.818 62.9375V64.0547C131.772 64.0417 131.688 64.0273 131.568 64.0117C131.449 63.9935 131.329 63.9844 131.209 63.9844C130.933 63.9844 130.687 64.043 130.471 64.1602C130.257 64.2747 130.088 64.4349 129.963 64.6406C129.838 64.8437 129.775 65.0755 129.775 65.3359V69H128.608ZM134.547 65.4375V69H133.379V63H134.5V63.9766H134.575C134.713 63.6589 134.929 63.4036 135.223 63.2109C135.52 63.0182 135.894 62.9219 136.344 62.9219C136.753 62.9219 137.111 63.0078 137.418 63.1797C137.726 63.349 137.964 63.6016 138.133 63.9375C138.302 64.2734 138.387 64.6888 138.387 65.1836V69H137.219V65.3242C137.219 64.8893 137.106 64.5495 136.879 64.3047C136.653 64.0573 136.341 63.9336 135.946 63.9336C135.675 63.9336 135.434 63.9922 135.223 64.1094C135.015 64.2266 134.849 64.3984 134.727 64.625C134.607 64.849 134.547 65.1198 134.547 65.4375Z" fill="black"/>
<circle cx="55" cy="65" r="2" fill="#93B8E9"/>
<circle cx="102" cy="65" r="2" fill="#93B8E9"/>
</svg>
