<svg width="141" height="52" viewBox="0 0 141 52" fill="none" xmlns="http://www.w3.org/2000/svg">
<rect x="59" y="8" width="82" height="44" rx="3" fill="#93B8E9"/>
<path d="M94 7C94 5.89543 94.8954 5 96 5H103C104.105 5 105 5.89543 105 7H94Z" fill="#93B8E9"/>
<path d="M87 3C87 1.34315 88.3431 0 90 0H109C110.657 0 112 1.34315 112 3V7H108.82C107.743 7 106.796 6.28585 106.5 5.25C106.204 4.21415 105.257 3.5 104.18 3.5H94.82C93.7427 3.5 92.796 4.21415 92.5 5.25C92.204 6.28585 91.2573 7 90.18 7H87V3Z" fill="#93B8E9"/>
<path d="M17.5065 38H11.8225L11.3185 35.004L11.2905 34.92L8.54647 34.864L6.25047 34.976L5.77447 38H0.286469L5.77447 19.884H12.5505L17.5065 38ZM10.4505 30.832L9.21847 24.896H8.88247L7.31447 30.832L8.88247 30.86L10.4505 30.832ZM27.0943 19.576C28.6996 19.576 30.2116 19.828 31.6303 20.332L30.6783 24.784L30.3143 25.008C29.8289 24.7467 29.2689 24.5413 28.6343 24.392C27.9996 24.224 27.4116 24.14 26.8703 24.14C25.7316 24.14 24.9103 24.476 24.4063 25.148C23.9023 25.8013 23.6503 26.9027 23.6503 28.452C23.6503 30.2627 23.9396 31.588 24.5183 32.428C25.0969 33.2493 26.0023 33.66 27.2343 33.66C27.7569 33.66 28.3356 33.6133 28.9703 33.52C29.6236 33.408 30.1929 33.2587 30.6783 33.072L31.1263 33.352L30.6783 37.776C29.5583 38.1307 28.2609 38.308 26.7863 38.308C23.7809 38.308 21.5129 37.524 19.9823 35.956C18.4703 34.388 17.7143 32.1013 17.7143 29.096C17.7143 26.072 18.5263 23.7293 20.1503 22.068C21.7929 20.4067 24.1076 19.576 27.0943 19.576ZM46.0971 33.52L46.4051 33.912L46.0691 38H33.3011L33.5811 32.68L33.3011 19.884H46.2931L46.6011 20.276L46.2371 24.364L41.7851 24.196H38.9011L38.8451 26.744H41.6171L44.5291 26.66L44.8371 27.052L44.5011 31.14L41.2531 31.056H38.7331L38.7051 32.12L38.7611 33.688H41.4491L46.0971 33.52Z" fill="black"/>
<path d="M80.997 32.036L81.053 34.528C81.053 35.704 80.857 36.6933 80.465 37.496C80.073 38.2987 79.4196 38.9893 78.505 39.568C77.609 40.1467 76.3583 40.6693 74.753 41.136L73.297 38.252V37.804C74.249 37.3373 74.9116 36.852 75.285 36.348C75.677 35.844 75.873 35.1813 75.873 34.36V32.596L75.677 23.832L73.297 23.916L72.989 23.552L73.213 19.884H81.305L80.997 32.036ZM91.1975 23.356C93.4375 23.356 95.1642 23.972 96.3775 25.204C97.6095 26.436 98.2255 28.1813 98.2255 30.44C98.2255 32.9413 97.5442 34.8827 96.1815 36.264C94.8375 37.6267 92.9335 38.308 90.4695 38.308C88.2295 38.308 86.4935 37.6827 85.2615 36.432C84.0482 35.1627 83.4415 33.3893 83.4415 31.112C83.4415 28.648 84.1135 26.744 85.4575 25.4C86.8202 24.0373 88.7335 23.356 91.1975 23.356ZM90.7215 27.472C90.1988 27.472 89.8068 27.5467 89.5455 27.696C89.3028 27.8267 89.1255 28.0973 89.0135 28.508C88.9202 28.9187 88.8735 29.5533 88.8735 30.412C88.8735 31.588 88.9295 32.456 89.0415 33.016C89.1535 33.576 89.3495 33.9587 89.6295 34.164C89.9095 34.3693 90.3482 34.472 90.9455 34.472C91.4868 34.472 91.8788 34.4067 92.1215 34.276C92.3828 34.1267 92.5602 33.856 92.6535 33.464C92.7468 33.0533 92.7935 32.4187 92.7935 31.56C92.7935 30.3653 92.7375 29.488 92.6255 28.928C92.5322 28.368 92.3362 27.9853 92.0375 27.78C91.7575 27.5747 91.3188 27.472 90.7215 27.472ZM110.593 30.636C111.545 30.916 112.226 31.3173 112.637 31.84C113.066 32.344 113.281 33.0067 113.281 33.828C113.281 35.34 112.618 36.4413 111.293 37.132C109.967 37.8227 107.97 38.168 105.301 38.168C104.087 38.168 102.305 38.112 99.9528 38L100.205 33.828L99.9528 23.636H107.205C108.997 23.636 110.387 23.9533 111.377 24.588C112.385 25.2227 112.889 26.156 112.889 27.388C112.889 28.0787 112.693 28.704 112.301 29.264C111.909 29.824 111.339 30.2813 110.593 30.636ZM107.513 28.172C107.513 27.8733 107.438 27.6493 107.289 27.5C107.158 27.3507 106.925 27.248 106.589 27.192C106.253 27.136 105.73 27.108 105.021 27.108L104.965 29.32L106.477 29.404C106.85 29.2733 107.111 29.124 107.261 28.956C107.429 28.7693 107.513 28.508 107.513 28.172ZM106.309 34.724C106.813 34.724 107.205 34.6307 107.485 34.444C107.783 34.2573 107.933 33.9773 107.933 33.604C107.933 33.3987 107.858 33.2213 107.709 33.072C107.559 32.9227 107.307 32.7733 106.953 32.624L104.881 32.68L104.853 33.296L104.909 34.64C105.469 34.696 105.935 34.724 106.309 34.724ZM121.614 23.356C123.126 23.356 124.601 23.608 126.038 24.112L125.282 28.424L124.554 28.62C123.901 28.1907 123.219 27.8453 122.51 27.584C121.819 27.3227 121.278 27.192 120.886 27.192C120.494 27.192 120.298 27.3133 120.298 27.556C120.298 27.7987 120.429 27.9947 120.69 28.144C120.97 28.2933 121.427 28.4893 122.062 28.732C122.902 29.0307 123.602 29.3387 124.162 29.656C124.741 29.9547 125.235 30.4027 125.646 31C126.075 31.5787 126.29 32.3253 126.29 33.24C126.29 34.136 126.066 34.9667 125.618 35.732C125.189 36.4973 124.489 37.1227 123.518 37.608C122.547 38.0933 121.315 38.336 119.822 38.336C118.142 38.336 116.453 38.0747 114.754 37.552L115.51 33.044L115.986 32.68C116.714 33.2587 117.507 33.7347 118.366 34.108C119.225 34.4813 119.934 34.668 120.494 34.668C120.942 34.668 121.166 34.5187 121.166 34.22C121.166 33.996 121.035 33.8187 120.774 33.688C120.531 33.5387 120.093 33.3427 119.458 33.1C118.618 32.8013 117.909 32.4933 117.33 32.176C116.751 31.8587 116.247 31.4013 115.818 30.804C115.389 30.188 115.174 29.4133 115.174 28.48C115.174 27.5093 115.426 26.6413 115.93 25.876C116.434 25.092 117.171 24.476 118.142 24.028C119.113 23.58 120.27 23.356 121.614 23.356Z" fill="white"/>
</svg>
