<svg xmlns="http://www.w3.org/2000/svg" xmlns:xlink="http://www.w3.org/1999/xlink" width="500" zoomAndPan="magnify" viewBox="0 0 375 374.999991" height="500" preserveAspectRatio="xMidYMid meet" version="1.0"><defs><clipPath id="da4dbdf145"><path d="M 84.246094 200.214844 L 290.496094 200.214844 L 290.496094 294.070312 L 84.246094 294.070312 Z M 84.246094 200.214844 " clip-rule="nonzero"/></clipPath><clipPath id="fdc0220a90"><path d="M 158 190.203125 L 216.703125 190.203125 L 216.703125 294.070312 L 158 294.070312 Z M 158 190.203125 " clip-rule="nonzero"/></clipPath><clipPath id="106628b446"><path d="M 152.347656 224 L 224.828125 224 L 224.828125 294.070312 L 152.347656 294.070312 Z M 152.347656 224 " clip-rule="nonzero"/></clipPath><clipPath id="03f9cb4879"><path d="M 136.105469 185 L 175 185 L 175 294.070312 L 136.105469 294.070312 Z M 136.105469 185 " clip-rule="nonzero"/></clipPath><clipPath id="126d0e8311"><path d="M 199.210938 185 L 238.574219 185 L 238.574219 294.070312 L 199.210938 294.070312 Z M 199.210938 185 " clip-rule="nonzero"/></clipPath><clipPath id="f609ce6dee"><path d="M 126.105469 266.558594 L 129.855469 266.558594 L 129.855469 294.070312 L 126.105469 294.070312 Z M 126.105469 266.558594 " clip-rule="nonzero"/></clipPath><clipPath id="f3987696b7"><path d="M 244.820312 266.558594 L 248.570312 266.558594 L 248.570312 294.070312 L 244.820312 294.070312 Z M 244.820312 266.558594 " clip-rule="nonzero"/></clipPath><clipPath id="fa511fb7e0"><path d="M 116.109375 209.605469 L 258.566406 209.605469 L 258.566406 294.070312 L 116.109375 294.070312 Z M 116.109375 209.605469 " clip-rule="nonzero"/></clipPath></defs><rect x="-37.5" width="450" fill="#ffffff" y="-37.499999" height="449.999989" fill-opacity="1"/><rect x="-37.5" width="450" fill="#ffffff" y="-37.499999" height="449.999989" fill-opacity="1"/><rect x="-37.5" width="450" fill="#ffffff" y="-37.499999" height="449.999989" fill-opacity="1"/><path fill="#f2d0bf" d="M 134.898438 129.84375 C 138.480469 128.300781 143.039062 133.609375 145.082031 141.699219 C 147.121094 149.789062 145.871094 157.59375 142.285156 159.136719 C 138.703125 160.675781 134.144531 155.367188 132.105469 147.277344 C 130.0625 139.1875 131.316406 131.378906 134.898438 129.84375 " fill-opacity="1" fill-rule="evenodd"/><path fill="#f2d0bf" d="M 239.664062 129.84375 C 236.082031 128.300781 231.523438 133.609375 229.480469 141.699219 C 227.441406 149.789062 228.691406 157.59375 232.277344 159.132812 C 235.859375 160.675781 240.417969 155.367188 242.457031 147.277344 C 244.5 139.1875 243.25 131.378906 239.664062 129.84375 " fill-opacity="1" fill-rule="evenodd"/><path fill="#eccebe" d="M 209.246094 161.230469 L 209.246094 211.238281 C 197.21875 225.992188 177.535156 225.480469 165.511719 211.238281 L 165.511719 161.230469 C 165.511719 134.230469 209.246094 134.230469 209.246094 161.230469 " fill-opacity="1" fill-rule="evenodd"/><path fill="#dfc4b6" d="M 209.246094 161.230469 L 209.246094 194.710938 C 200.96875 200.75 192.992188 204.136719 187.378906 204.136719 C 181.761719 204.136719 173.785156 200.75 165.511719 194.710938 L 165.511719 161.230469 C 165.511719 134.230469 209.246094 134.230469 209.246094 161.230469 " fill-opacity="1" fill-rule="evenodd"/><g clip-path="url(#da4dbdf145)"><path fill="#4db6ac" d="M 166.757812 200.253906 C 121.175781 220.277344 107.5 230.945312 102.097656 235.738281 C 93.765625 243.121094 89.15625 270.644531 84.246094 294.011719 L 290.511719 294.011719 C 285.601562 270.644531 280.992188 243.121094 272.660156 235.738281 C 267.257812 230.945312 254.082031 220.550781 208.5 200.53125 L 166.757812 200.253906 " fill-opacity="1" fill-rule="evenodd"/></g><g clip-path="url(#fdc0220a90)"><path fill="#ffddcc" d="M 160.621094 190.355469 L 158.328125 294.011719 L 216.335938 294.011719 L 214.042969 190.355469 C 196.234375 190.355469 178.425781 190.355469 160.621094 190.355469 " fill-opacity="1" fill-rule="evenodd"/></g><g clip-path="url(#106628b446)"><path fill="#4fc3f7" d="M 152.59375 224.324219 C 164.070312 232.867188 195.839844 238.46875 224.378906 226.386719 C 204.65625 252.492188 211.433594 294.011719 211.433594 294.011719 L 171.128906 294.011719 C 171.128906 294.011719 167.011719 257.621094 152.59375 224.324219 " fill-opacity="1" fill-rule="evenodd"/></g><g clip-path="url(#03f9cb4879)"><path fill="#00897b" d="M 165.246094 185.152344 L 165.246094 210.96875 L 174.859375 294.011719 L 158.328125 294.011719 L 140.140625 257.023438 L 157.5 245.433594 L 136.285156 235.496094 C 136.285156 235.496094 140.738281 200.640625 165.246094 185.152344 " fill-opacity="1" fill-rule="evenodd"/></g><g clip-path="url(#126d0e8311)"><path fill="#00897b" d="M 209.511719 185.152344 L 209.515625 210.96875 L 199.804688 294.011719 L 216.335938 294.011719 L 234.523438 257.023438 L 217.164062 245.433594 L 238.378906 235.496094 C 238.378906 235.496094 230.46875 198.855469 209.511719 185.152344 " fill-opacity="1" fill-rule="evenodd"/></g><g clip-path="url(#f609ce6dee)"><path fill="#004d40" d="M 126.277344 294.011719 L 129.808594 294.011719 C 129.648438 278.277344 129.648438 266.941406 129.648438 266.941406 C 129.648438 266.941406 128.082031 278.726562 126.277344 294.011719 " fill-opacity="1" fill-rule="evenodd"/></g><g clip-path="url(#f3987696b7)"><path fill="#004d40" d="M 248.484375 294.011719 L 244.949219 294.011719 C 245.109375 278.277344 245.109375 266.941406 245.109375 266.941406 C 245.109375 266.941406 246.671875 278.726562 248.484375 294.011719 " fill-opacity="1" fill-rule="evenodd"/></g><path fill="#f2d0bf" d="M 210.335938 162.183594 L 209.511719 196.019531 C 200.96875 202.0625 193.179688 205.484375 187.378906 205.484375 C 181.578125 205.484375 173.789062 202.296875 165.246094 196.253906 L 164.421875 162.183594 C 164.421875 135.179688 210.335938 135.179688 210.335938 162.183594 " fill-opacity="1" fill-rule="evenodd"/><path fill="#ffddcc" d="M 187.378906 71.457031 C 113.988281 71.457031 140.378906 164.195312 145.171875 171.265625 C 150.460938 179.066406 165.246094 195.820312 187.378906 195.820312 C 207.53125 195.820312 224.296875 179.066406 229.582031 171.265625 C 234.378906 164.195312 260.769531 71.457031 187.378906 71.457031 " fill-opacity="1" fill-rule="evenodd"/><path fill="#293439" d="M 153.832031 101.183594 C 149.578125 124.480469 138.914062 122.304688 139.761719 149.644531 C 136.332031 128.335938 131.21875 99.980469 145.683594 81.304688 C 157.238281 66.378906 195.511719 55.703125 220.296875 73.609375 C 247.671875 79.46875 239.113281 135.292969 235.441406 145.847656 C 232.878906 128.757812 227.136719 121.636719 219.890625 101.542969 C 210.0625 108.601562 166.433594 110.179688 153.832031 101.183594 " fill-opacity="1" fill-rule="evenodd"/><path fill="#00897b" d="M 243.328125 110.199219 C 245.40625 111.953125 246.53125 113.808594 246.53125 115.671875 C 246.53125 120.5 237.652344 126.964844 223.703125 130.996094 C 213.929688 133.820312 201.410156 135.929688 187.828125 135.929688 C 174.25 135.929688 161.730469 133.820312 151.953125 130.996094 C 138.003906 126.964844 129.125 120.5 129.125 115.671875 C 129.125 113.808594 130.25 111.953125 132.332031 110.199219 L 243.328125 110.199219 " fill-opacity="1" fill-rule="nonzero"/><path fill="#e0e0e0" d="M 187.476562 61.898438 C 221.621094 61.898438 243.035156 83.390625 249.300781 95.898438 C 252.367188 102.03125 248.28125 103.722656 243.265625 103.722656 L 132.175781 103.722656 C 127.078125 103.722656 124.265625 101.191406 125.652344 95.898438 C 128.773438 83.953125 153.332031 61.898438 187.476562 61.898438 " fill-opacity="1" fill-rule="evenodd"/><path fill="#4db6ac" d="M 132.328125 110.238281 L 243.328125 110.238281 L 243.328125 103.722656 L 132.328125 103.722656 L 132.328125 110.238281 " fill-opacity="1" fill-rule="evenodd"/><path fill="#ffab40" d="M 132.328125 110.238281 L 243.328125 110.238281 L 243.328125 106.980469 L 132.328125 106.980469 L 132.328125 110.238281 " fill-opacity="1" fill-rule="evenodd"/><path fill="#424242" d="M 187.828125 96.304688 C 192.09375 96.304688 195.570312 92.9375 195.570312 88.804688 C 195.570312 84.675781 192.09375 81.308594 187.828125 81.308594 C 183.566406 81.308594 180.085938 84.675781 180.085938 88.804688 C 180.085938 92.9375 183.566406 96.304688 187.828125 96.304688 " fill-opacity="1" fill-rule="evenodd"/><path fill="#424242" d="M 187.191406 293.25 C 194.832031 293.25 201.058594 287.007812 201.058594 279.355469 C 201.058594 271.707031 194.832031 265.464844 187.191406 265.464844 C 179.550781 265.464844 173.324219 271.707031 173.324219 279.355469 C 173.324219 287.007812 179.550781 293.25 187.191406 293.25 " fill-opacity="1" fill-rule="evenodd"/><g clip-path="url(#fa511fb7e0)"><path fill="#000000" d="M 187.332031 209.78125 C 148.101562 209.78125 116.304688 241.636719 116.304688 280.933594 C 116.304688 285.421875 116.71875 289.8125 117.515625 294.070312 L 128.070312 294.070312 C 128.027344 293.882812 127.984375 293.691406 127.945312 293.503906 L 151.15625 286.6875 C 162.054688 284.277344 165.835938 283.738281 171.492188 287.898438 L 174.550781 290.507812 C 175.910156 291.703125 176.9375 292.84375 177.71875 294.070312 L 196.949219 294.070312 C 197.722656 292.84375 198.753906 291.703125 200.113281 290.507812 L 203.171875 287.898438 C 208.828125 283.738281 212.613281 284.277344 223.507812 286.6875 L 246.71875 293.503906 C 246.679688 293.691406 246.632812 293.882812 246.59375 294.070312 L 257.148438 294.070312 C 257.941406 289.8125 258.363281 285.421875 258.363281 280.933594 C 258.363281 241.636719 226.558594 209.78125 187.332031 209.78125 Z M 187.332031 220.140625 C 219.734375 220.140625 246.203125 245.578125 247.929688 277.605469 C 241.078125 274.894531 210.660156 263.390625 187.332031 263.390625 C 164.003906 263.390625 133.585938 274.894531 126.734375 277.605469 C 128.460938 245.578125 154.929688 220.140625 187.332031 220.140625 Z M 174.539062 279.53125 C 174.539062 272.453125 180.265625 266.714844 187.332031 266.714844 C 194.398438 266.714844 200.128906 272.453125 200.128906 279.53125 C 200.128906 286.609375 194.398438 292.347656 187.332031 292.347656 C 180.265625 292.347656 174.539062 286.609375 174.539062 279.53125 Z M 187.332031 272.984375 C 190.941406 272.984375 193.867188 275.917969 193.867188 279.53125 C 193.867188 283.144531 190.941406 286.078125 187.332031 286.078125 C 183.722656 286.078125 180.796875 283.144531 180.796875 279.53125 C 180.796875 275.917969 183.722656 272.984375 187.332031 272.984375 " fill-opacity="1" fill-rule="nonzero"/></g></svg>