<svg xmlns="http://www.w3.org/2000/svg" xmlns:xlink="http://www.w3.org/1999/xlink" width="500" zoomAndPan="magnify" viewBox="0 0 375 374.999991" height="500" preserveAspectRatio="xMidYMid meet" version="1.0"><defs><clipPath id="cc12bc48cc"><path d="M 192 63.820312 L 224 63.820312 L 224 86 L 192 86 Z M 192 63.820312 " clip-rule="nonzero"/></clipPath></defs><rect x="-37.5" width="450" fill="#ffffff" y="-37.499999" height="449.999989" fill-opacity="1"/><rect x="-37.5" width="450" fill="#ffffff" y="-37.499999" height="449.999989" fill-opacity="1"/><path fill="#d8976a" d="M 193.800781 309.996094 C 192.1875 309.996094 190.832031 309.679688 189.902344 309.082031 L 189.722656 308.960938 C 189.15625 308.609375 188.628906 308.273438 188.433594 307.644531 L 188.417969 307.601562 L 188.398438 307.566406 C 187.8125 306.589844 187.65625 305.414062 187.953125 304.0625 C 188.445312 301.777344 189.015625 299.46875 189.566406 297.230469 C 189.75 296.476562 189.9375 295.714844 190.121094 294.960938 C 190.128906 294.941406 190.171875 294.886719 190.199219 294.84375 C 190.234375 294.800781 190.261719 294.757812 190.292969 294.707031 L 190.363281 294.597656 L 190.339844 294.460938 C 190.222656 293.722656 190.074219 292.757812 189.996094 291.78125 L 189.960938 291.355469 L 189.550781 291.46875 L 189.304688 291.53125 C 189.179688 291.5625 189.050781 291.597656 188.925781 291.632812 C 186.953125 292.214844 185.183594 292.496094 183.53125 292.496094 C 183.03125 292.496094 182.53125 292.46875 182.042969 292.421875 C 179.226562 292.125 177.113281 290.421875 176.65625 288.074219 C 176.550781 287.539062 176.515625 287.101562 176.671875 286.679688 L 176.683594 286.636719 L 176.683594 286.597656 C 176.867188 284.808594 178.128906 283.476562 179.972656 283.125 C 181.09375 282.914062 182.253906 282.765625 183.375 282.617188 C 184.234375 282.503906 185.121094 282.390625 185.996094 282.25 C 186.804688 282.117188 187.53125 281.976562 188.214844 281.816406 L 188.566406 281.730469 L 188.472656 281.378906 C 188.367188 280.960938 188.257812 280.546875 188.144531 280.132812 C 188.074219 279.855469 187.933594 279.355469 187.320312 279.355469 C 187.226562 279.355469 187.128906 279.371094 187.007812 279.390625 C 186.363281 279.519531 185.691406 279.53125 185.191406 279.53125 C 184.925781 279.53125 184.65625 279.53125 184.390625 279.527344 C 184.113281 279.527344 183.847656 279.519531 183.574219 279.519531 L 183.355469 279.519531 C 172.199219 279.636719 161.035156 279.75 149.878906 279.851562 C 149.132812 279.851562 148.800781 280.144531 148.695312 280.886719 C 148.261719 283.957031 147.964844 287.097656 147.683594 290.125 C 147.597656 291.03125 147.515625 291.949219 147.421875 292.855469 C 147.394531 293.109375 147.289062 293.703125 146.796875 293.703125 C 146.753906 293.703125 146.71875 293.703125 146.675781 293.6875 C 146.332031 293.632812 145.941406 293.460938 146 292.703125 C 147.050781 279.714844 148.929688 268.335938 151.753906 257.914062 C 152.261719 256.046875 153.027344 254.0625 154.167969 251.679688 L 154.375 251.25 L 153.910156 251.179688 C 153.273438 251.082031 152.625 251.035156 152.007812 250.984375 C 151.203125 250.921875 150.375 250.855469 149.585938 250.6875 C 148.519531 250.457031 147.421875 250.117188 146.597656 249.1875 C 145.90625 248.414062 145.726562 247.5 145.648438 246.273438 L 145.625 245.941406 L 145.296875 245.941406 C 142.308594 245.941406 139.710938 246.363281 137.289062 247.222656 C 136.722656 247.421875 136.378906 247.5625 136.230469 247.886719 C 136.082031 248.214844 136.222656 248.5625 136.449219 249.140625 C 138.117188 253.292969 139.140625 257.152344 139.554688 260.941406 C 139.886719 265.039062 139.808594 269.230469 139.730469 273.285156 C 139.71875 274.203125 139.695312 275.109375 139.683594 276.027344 L 139.660156 277.546875 C 139.625 279.898438 139.589844 282.335938 139.605469 284.730469 C 139.613281 286.039062 139.71875 287.355469 139.816406 288.636719 C 139.859375 289.222656 139.90625 289.808594 139.941406 290.386719 L 139.957031 290.582031 L 140.132812 290.671875 C 141.34375 291.308594 142.265625 292.328125 142.964844 293.792969 C 143.464844 294.851562 143.753906 296.0625 143.816406 297.40625 C 144.019531 298.984375 143.046875 300.632812 141.613281 301.195312 C 140.527344 301.617188 139.371094 301.828125 138.175781 301.828125 C 137.597656 301.828125 137 301.777344 136.386719 301.679688 C 135.089844 301.46875 133.71875 301.371094 132.179688 301.371094 C 130.140625 301.371094 128.070312 301.554688 126.070312 301.730469 C 126.070312 301.730469 125.144531 301.816406 124.835938 301.84375 C 123.785156 301.941406 122.703125 302.046875 121.636719 302.046875 C 120.773438 302.046875 119.996094 301.976562 119.277344 301.835938 C 117.773438 301.539062 116.960938 300.976562 116.574219 299.957031 C 116.292969 299.214844 116.363281 298.800781 116.828125 298.476562 L 116.898438 298.425781 L 116.941406 298.351562 C 117.160156 297.921875 117.597656 297.816406 118.101562 297.695312 L 118.273438 297.652344 C 120.28125 297.160156 122.074219 296.671875 123.785156 295.78125 C 124.679688 295.308594 125.828125 294.636719 126.738281 293.625 C 128.054688 292.160156 129.6875 291.082031 131.535156 289.914062 C 131.773438 289.757812 132.035156 289.679688 132.324219 289.660156 L 132.660156 289.636719 L 132.660156 289.300781 C 132.617188 288.132812 132.40625 286.976562 132.195312 285.863281 C 132.097656 285.328125 132 284.792969 131.914062 284.25 C 131.089844 278.722656 130.214844 273.800781 129.238281 269.195312 C 128.964844 267.90625 128.675781 266.625 128.386719 265.34375 C 128.203125 264.535156 128.019531 263.730469 127.84375 262.921875 C 127.800781 262.730469 127.78125 262.535156 127.757812 262.335938 C 127.75 262.238281 127.738281 262.140625 127.722656 262.035156 C 127.5 261.074219 127.273438 260.152344 127.046875 259.230469 C 126.539062 257.144531 126.019531 254.992188 125.535156 252.871094 C 125.378906 252.195312 125.222656 251.527344 125.0625 250.855469 C 124.5625 248.773438 124.046875 246.609375 123.820312 244.457031 C 123.351562 239.84375 124.292969 238.089844 128.441406 235.929688 C 132.539062 233.789062 136.886719 232.238281 141.34375 230.710938 C 147.125 228.722656 154.015625 226.484375 161.21875 224.871094 C 162.59375 224.5625 163.980469 224.28125 165.359375 224 C 165.992188 223.871094 167.4375 223.570312 167.4375 223.570312 L 167.816406 222.753906 C 168.410156 221.484375 169.015625 220.183594 169.261719 218.738281 C 169.671875 216.335938 169.515625 213.933594 168.78125 211.394531 C 168.515625 210.46875 168.207031 209.546875 167.894531 208.652344 C 167.445312 207.34375 166.988281 205.992188 166.683594 204.625 L 166.601562 204.203125 L 166.199219 202.140625 L 166.136719 202.070312 C 165.675781 201.570312 165.183594 201.105469 164.707031 200.652344 C 163.988281 199.976562 163.242188 199.273438 162.648438 198.457031 C 160.945312 196.117188 160.507812 193.511719 161.316406 190.492188 C 161.917969 188.265625 163.035156 186.160156 164.847656 183.878906 C 164.882812 183.835938 164.917969 183.792969 164.957031 183.753906 C 165.097656 183.605469 165.296875 183.394531 165.332031 183.078125 L 165.375 182.675781 L 164.972656 182.6875 C 164.707031 182.695312 164.4375 182.703125 164.167969 182.703125 C 159.699219 182.703125 155.226562 181.652344 150.894531 179.582031 C 149.65625 178.992188 149.089844 178.097656 149.054688 176.675781 C 148.972656 173.0625 149.921875 169.546875 150.84375 166.152344 L 150.875 166.0625 C 152.210938 161.125 154.027344 156.035156 156.429688 150.5 C 156.902344 149.414062 157.378906 148.332031 157.875 147.261719 C 158.164062 146.648438 158.09375 146.035156 158.015625 145.632812 C 157.859375 144.816406 157.988281 143.964844 158.414062 142.964844 C 158.578125 142.589844 158.816406 142.371094 159.164062 142.28125 L 159.070312 141.585938 C 157.007812 141.632812 154.949219 141.675781 152.886719 141.71875 C 151.078125 141.753906 149.261719 141.796875 147.449219 141.835938 C 147.191406 141.835938 146.929688 141.878906 146.667969 141.914062 C 146.554688 141.929688 146.441406 141.941406 146.332031 141.957031 L 146 141.992188 L 146.019531 142.332031 C 146.34375 147.5625 145.351562 151.546875 142.894531 154.886719 C 141.394531 156.921875 139.632812 157.90625 137.507812 157.90625 C 134.433594 157.894531 132.117188 156.5625 130.582031 153.949219 C 130.359375 153.570312 130.039062 153.160156 129.386719 153.046875 C 127.308594 152.667969 125.90625 151.441406 125.105469 149.296875 C 124.554688 147.835938 124.210938 146.230469 123.984375 144.097656 C 123.949219 143.78125 123.898438 143.472656 123.851562 143.160156 L 123.746094 142.449219 L 123.441406 142.449219 C 123.25 142.449219 123.074219 142.449219 122.90625 142.457031 C 122.738281 142.457031 122.566406 142.464844 122.398438 142.464844 C 122.203125 142.464844 121.996094 142.464844 121.800781 142.4375 C 121.074219 142.367188 120.527344 141.851562 120.53125 141.238281 C 120.53125 140.640625 121.03125 140.15625 121.746094 140.070312 C 122.125 140.019531 122.511719 140.015625 122.921875 140.015625 C 123.101562 140.015625 123.292969 140.015625 123.476562 140 L 123.78125 139.984375 L 123.816406 139.691406 C 123.878906 139.160156 123.933594 138.632812 123.992188 138.105469 C 124.109375 136.921875 124.238281 135.703125 124.496094 134.527344 C 125.003906 132.261719 125.703125 130.535156 126.679688 129.105469 C 127.371094 128.097656 127.992188 127.660156 128.738281 127.660156 C 128.949219 127.660156 129.167969 127.695312 129.398438 127.765625 C 129.5 127.796875 129.582031 127.808594 129.667969 127.808594 C 130.097656 127.808594 130.265625 127.472656 130.359375 127.289062 C 130.371094 127.253906 130.394531 127.21875 130.414062 127.191406 C 131.210938 125.835938 132.097656 124.808594 133.117188 124.035156 C 134.476562 123.007812 135.984375 122.464844 137.464844 122.464844 C 139.4375 122.464844 141.296875 123.429688 142.703125 125.175781 C 144.613281 127.535156 145.738281 130.414062 146.371094 134.507812 C 146.585938 135.867188 146.605469 137.300781 146.449219 138.894531 L 146.414062 139.246094 L 146.765625 139.273438 C 147.4375 139.332031 148.160156 139.367188 148.992188 139.367188 C 149.726562 139.367188 150.457031 139.34375 151.195312 139.324219 C 151.570312 139.308594 151.9375 139.300781 152.308594 139.296875 C 154.089844 139.253906 160.316406 139.105469 160.316406 139.105469 L 160.613281 139.105469 L 160.65625 138.800781 C 160.746094 138.175781 161.128906 137.695312 161.710938 137.457031 C 162.875 136.992188 163.945312 136.761719 164.972656 136.761719 C 165.613281 136.761719 166.242188 136.851562 166.851562 137.027344 C 167.613281 137.253906 168.21875 137.84375 168.515625 138.660156 L 168.601562 138.902344 L 173.988281 138.773438 C 174.136719 138.773438 174.277344 138.753906 174.425781 138.738281 L 174.953125 138.683594 L 174.925781 138.335938 C 174.714844 135.949219 175.488281 133.796875 176.359375 131.816406 C 178.683594 126.519531 182.09375 121.878906 186.488281 118.027344 L 186.628906 117.910156 L 186.609375 117.726562 C 186.566406 117.316406 186.609375 116.984375 186.75 116.667969 C 187.8125 114.324219 188.96875 111.816406 190.242188 109.367188 C 190.785156 108.332031 191.496094 107.375 192.242188 106.414062 C 193.910156 104.261719 196.300781 103.585938 198.628906 103.167969 C 200.03125 102.921875 201.644531 102.585938 203.058594 101.71875 L 203.378906 101.527344 L 203.164062 101.21875 C 201.976562 99.472656 201.011719 97.542969 200.074219 95.675781 C 199.699219 94.929688 199.328125 94.183594 198.933594 93.4375 C 198.25 92.140625 197.933594 90.710938 197.996094 89.191406 C 198.050781 87.65625 197.742188 86.203125 197.050781 84.769531 C 196.117188 82.832031 196.390625 80.796875 196.679688 78.648438 L 196.757812 78.078125 L 196.277344 78.167969 C 196.109375 78.203125 195.945312 78.21875 195.800781 78.21875 C 195.3125 78.21875 194.960938 78.035156 194.6875 77.632812 C 194.539062 77.421875 194.347656 77.339844 194.191406 77.269531 C 193.207031 76.816406 192.980469 76.289062 193.3125 75.359375 C 193.445312 74.988281 193.40625 74.664062 193.375 74.375 L 193.375 74.296875 C 193.339844 74.070312 193.296875 73.332031 193.796875 73.097656 C 194.226562 72.910156 194.582031 72.628906 194.917969 72.351562 C 195.320312 72.035156 195.691406 71.734375 196.15625 71.605469 C 196.328125 71.5625 196.566406 71.5 196.628906 71.253906 C 196.75 70.789062 197.085938 70.5 197.480469 70.167969 C 197.820312 69.886719 198.164062 69.59375 198.390625 69.164062 L 198.425781 69.09375 C 198.445312 69.050781 198.480469 68.972656 198.503906 68.953125 C 199.152344 68.648438 199.730469 68.164062 200.277344 67.691406 C 201.144531 66.953125 201.96875 66.253906 203.144531 66.203125 C 203.371094 66.199219 203.652344 66.191406 203.769531 65.9375 C 204.023438 65.410156 204.511719 65.253906 205.074219 65.078125 C 205.484375 64.953125 205.90625 64.816406 206.273438 64.527344 C 206.488281 64.351562 206.738281 64.253906 206.953125 64.253906 C 206.984375 64.253906 207.011719 64.253906 207.039062 64.253906 C 207.277344 64.28125 207.523438 64.289062 207.773438 64.289062 C 207.917969 64.289062 208.496094 64.273438 208.636719 64.273438 C 208.953125 64.273438 209.320312 64.289062 209.652344 64.386719 L 209.773438 64.421875 C 210.808594 64.726562 211.871094 65.042969 212.898438 65.429688 L 213.136719 65.523438 C 213.890625 65.816406 214.671875 66.113281 215.539062 66.113281 C 215.714844 66.113281 215.890625 66.097656 216.066406 66.070312 C 216.195312 66.050781 216.320312 66.042969 216.441406 66.042969 C 217.335938 66.042969 218.117188 66.492188 218.976562 67.042969 C 219.921875 67.648438 220.703125 68.558594 221.167969 69.621094 C 221.308594 69.9375 221.457031 70.246094 221.605469 70.5625 C 221.976562 71.339844 222.328125 72.070312 222.535156 72.894531 C 222.886719 74.289062 223.011719 75.675781 222.925781 77.128906 C 222.886719 77.867188 222.84375 78.578125 222.886719 79.28125 C 222.957031 80.378906 222.519531 81.324219 222.054688 82.324219 L 222.019531 82.410156 L 222.019531 82.5 C 222.144531 84.289062 222.1875 85.894531 221.554688 87.421875 L 221.484375 87.59375 C 221.230469 88.210938 220.984375 88.796875 220.5625 89.210938 C 219.84375 89.914062 219.933594 90.683594 220.019531 91.367188 C 220.273438 93.4375 221.0625 95.296875 221.792969 96.84375 L 221.921875 97.113281 L 222.203125 97.035156 C 222.257812 97.019531 222.308594 97.015625 222.355469 97.015625 C 222.5 97.015625 222.644531 97.078125 222.835938 97.21875 C 224.957031 98.832031 227.492188 99.71875 231.046875 100.097656 C 232.722656 100.273438 234.449219 100.464844 236.113281 101.042969 C 238.183594 101.761719 239.597656 102.746094 240.578125 104.140625 C 242.773438 107.269531 244.191406 109.808594 245.175781 112.386719 C 245.34375 112.824219 245.4375 113.167969 245.378906 113.527344 L 245.367188 113.640625 L 245.414062 113.738281 C 246.175781 115.28125 247.265625 116.578125 248.667969 117.597656 C 251.972656 120 254.164062 123.308594 255.375 127.726562 C 255.921875 129.726562 256.59375 131.84375 257.78125 133.773438 C 258.753906 135.351562 258.71875 137.042969 257.675781 138.789062 C 255.234375 142.914062 252.769531 146.054688 249.921875 148.667969 C 248.851562 149.648438 247.789062 150.667969 246.761719 151.660156 C 245.085938 153.265625 243.359375 154.929688 241.5625 156.457031 C 240.261719 157.570312 238.773438 158.589844 237.160156 159.5 C 236.632812 159.796875 236.070312 160.070312 235.5 160.070312 C 235.152344 160.070312 234.824219 159.964844 234.5 159.753906 L 233.828125 159.316406 L 233.957031 160.105469 C 234.265625 162.007812 234.808594 163.878906 235.582031 165.660156 C 235.929688 166.449219 235.871094 166.914062 235.386719 167.308594 L 235.183594 167.476562 L 235.289062 167.726562 C 238.152344 174.554688 239.167969 181.703125 240.042969 189.042969 C 240.449219 192.492188 240.921875 195.984375 241.378906 199.371094 C 241.851562 202.871094 242.335938 206.484375 242.761719 210.046875 C 243.535156 216.675781 244.585938 223.363281 245.605469 229.835938 C 245.894531 231.679688 246.183594 233.527344 246.472656 235.378906 C 246.675781 236.6875 246.878906 237.992188 247.089844 239.292969 C 247.625 242.609375 248.175781 246.046875 248.5625 249.441406 C 249.132812 254.433594 249.734375 259.800781 250.183594 265.28125 C 250.449219 268.496094 250.710938 271.785156 250.972656 275.328125 C 251.007812 275.828125 251.015625 276.34375 251.019531 276.84375 C 251.019531 277.179688 251.019531 277.519531 251.042969 277.855469 C 251.0625 278.46875 250.859375 278.90625 250.402344 279.238281 L 250.15625 279.414062 L 250.289062 279.679688 C 250.640625 280.378906 251.027344 281.066406 251.410156 281.730469 C 251.957031 282.695312 252.519531 283.6875 252.957031 284.714844 C 253.09375 285.03125 253.234375 285.351562 253.375 285.667969 C 253.980469 287.027344 254.558594 288.316406 254.664062 289.773438 C 254.683594 290.054688 254.699219 290.335938 254.703125 290.625 L 254.71875 291.027344 C 254.699219 292.75 253.824219 293.878906 251.964844 294.539062 C 251.253906 294.792969 250.5625 294.933594 249.914062 294.949219 C 249.132812 294.96875 248.351562 294.976562 247.5625 294.976562 C 245.246094 294.976562 242.886719 294.890625 240.613281 294.816406 L 240.367188 294.816406 C 239.230469 294.765625 238.148438 294.351562 237.222656 293.597656 C 236.40625 292.925781 236.042969 292.335938 235.984375 291.597656 L 235.984375 291.539062 L 235.957031 291.484375 C 235.617188 290.695312 235.738281 289.851562 235.894531 289.132812 C 236.222656 287.636719 236.589844 286.132812 236.949219 284.675781 L 237.441406 282.652344 L 237.21875 282.519531 C 236.570312 282.136719 236.183594 281.527344 235.792969 280.722656 C 234.582031 278.210938 233.941406 275.355469 233.816406 272.003906 C 233.753906 270.167969 233.316406 268.316406 232.40625 265.984375 C 232.105469 265.203125 231.792969 264.425781 231.492188 263.652344 C 230.148438 260.238281 228.753906 256.710938 227.730469 253.125 C 226.117188 247.457031 225.222656 241.441406 225.074219 235.246094 C 224.949219 230.0625 224.308594 225.039062 223.167969 220.324219 C 222.675781 218.300781 221.871094 216.363281 221.089844 214.5 C 220.710938 213.589844 220.316406 212.648438 219.96875 211.710938 C 219.140625 209.484375 218.246094 207.238281 217.386719 205.070312 L 216.511719 202.871094 C 216.492188 202.828125 216.484375 202.78125 216.46875 202.730469 C 216.40625 202.519531 216.320312 202.238281 216.019531 202.054688 L 215.835938 201.941406 L 215.652344 202.054688 C 215.335938 202.253906 215.378906 202.570312 215.390625 202.6875 C 215.527344 207.476562 215.136719 212.574219 214.160156 218.78125 C 213.292969 224.28125 212.835938 229.710938 212.503906 234.300781 C 212.132812 239.441406 211.742188 244.757812 212.019531 250.082031 C 212.097656 251.652344 212.238281 253.246094 212.371094 254.785156 C 212.519531 256.484375 212.667969 258.238281 212.742188 259.957031 C 213.011719 266.117188 213.109375 272.714844 212.019531 279.238281 C 211.960938 279.5625 211.878906 279.878906 211.792969 280.214844 C 211.75 280.371094 211.707031 280.53125 211.671875 280.6875 L 211.632812 280.863281 L 211.75 280.996094 C 212.273438 281.617188 212.363281 282.390625 212.460938 283.214844 L 212.492188 283.425781 C 212.566406 284.054688 212.597656 284.703125 212.617188 285.328125 C 212.632812 285.617188 212.636719 285.898438 212.660156 286.1875 C 212.84375 290.011719 211.539062 291.449219 207.695312 291.667969 C 207.523438 291.671875 207.363281 291.679688 207.195312 291.679688 C 205.933594 291.679688 204.679688 291.421875 203.601562 291.171875 C 201.714844 290.746094 199.792969 290.492188 197.890625 290.441406 L 197.539062 290.441406 L 197.515625 290.996094 C 197.488281 291.84375 197.460938 292.636719 197.109375 293.378906 L 197.003906 293.601562 L 197.179688 293.78125 C 197.476562 294.082031 197.6875 294.433594 197.828125 294.863281 C 198.660156 297.363281 199.722656 299.800781 200.996094 302.101562 C 201.390625 302.808594 201.695312 303.566406 201.910156 304.371094 C 202.1875 305.390625 202.089844 306.136719 201.589844 306.785156 L 201.441406 306.933594 L 202.039062 307.25 L 201.355469 307.089844 C 201.304688 307.308594 201.128906 307.460938 200.917969 307.644531 C 200.855469 307.703125 200.800781 307.75 200.742188 307.808594 C 199.425781 309.0625 196.523438 309.96875 193.832031 309.96875 Z M 156.121094 251.371094 C 155.140625 252.816406 154.359375 254.5 153.667969 256.660156 C 151.578125 263.175781 150.445312 270.003906 149.335938 276.601562 L 149.226562 277.28125 C 149.183594 277.53125 149.15625 277.890625 149.371094 278.152344 C 149.585938 278.40625 149.921875 278.40625 150.0625 278.40625 L 150.378906 278.40625 L 156.859375 278.335938 C 163.027344 278.273438 169.207031 278.210938 175.375 278.160156 C 176.820312 278.144531 178.261719 278.144531 179.71875 278.144531 C 180.925781 278.144531 187.617188 278.152344 187.617188 278.152344 L 187.472656 277.695312 C 186.863281 275.695312 186.277344 273.703125 185.691406 271.710938 C 183.59375 264.589844 181.613281 257.863281 178.71875 251.257812 L 178.628906 251.046875 L 177.875 251.046875 C 176.820312 251.046875 175.761719 251.046875 174.707031 251.039062 C 173.648438 251.039062 172.585938 251.027344 171.53125 251.027344 C 169.4375 251.027344 167.746094 251.046875 166.207031 251.097656 L 164.980469 251.140625 C 163.132812 251.203125 161.234375 251.265625 159.359375 251.265625 C 158.304688 251.265625 157.34375 251.246094 156.429688 251.203125 L 156.234375 251.203125 L 156.121094 251.355469 Z M 180.253906 251.117188 L 180.4375 251.570312 C 181.644531 254.546875 183.023438 258.074219 184.148438 261.6875 C 184.742188 263.589844 185.339844 265.484375 185.9375 267.378906 L 186.726562 269.890625 L 187.417969 269.773438 C 187.417969 269.652344 187.410156 269.53125 187.410156 269.40625 C 187.410156 269.125 187.402344 268.84375 187.355469 268.546875 C 186.707031 264.5625 186.507812 260.597656 186.417969 257.582031 L 186.417969 257.476562 L 186.355469 257.390625 C 186.257812 257.257812 186.25 257.097656 186.25 256.84375 C 186.25 256.757812 186.25 256.679688 186.242188 256.597656 L 185.847656 250.714844 L 180.261719 251.117188 Z M 192.023438 140.816406 L 175.347656 141.191406 L 168.140625 141.371094 L 168.035156 141.5 C 166.980469 142.78125 165.753906 143.964844 164.382812 145.027344 C 163.59375 145.632812 163.085938 146.351562 162.816406 147.230469 C 161.832031 150.449219 161.21875 153.789062 160.621094 157.019531 L 160.4375 157.992188 C 159.957031 160.5625 159.585938 163.183594 159.21875 165.71875 C 158.902344 167.949219 158.570312 170.253906 158.167969 172.507812 C 158.113281 172.816406 158.09375 173.132812 158.273438 173.359375 C 158.386719 173.484375 158.542969 173.554688 158.738281 173.554688 C 158.878906 173.554688 159.027344 173.527344 159.234375 173.476562 C 161.097656 173.070312 163.09375 172.871094 165.324219 172.871094 C 166.542969 172.871094 167.847656 172.929688 169.3125 173.054688 C 169.472656 173.070312 169.566406 173.078125 169.65625 173.078125 C 169.707031 173.078125 169.753906 173.078125 169.804688 173.070312 C 169.847656 173.070312 169.875 173.070312 169.910156 173.078125 C 169.972656 173.082031 170.035156 173.089844 170.101562 173.089844 C 170.480469 173.089844 170.636719 172.84375 170.691406 172.695312 C 170.824219 172.351562 170.628906 172.078125 170.507812 171.914062 L 170.460938 171.84375 C 169.542969 170.457031 168.496094 169.148438 167.480469 167.878906 L 167.339844 167.703125 C 165.8125 165.789062 165.183594 163.992188 165.359375 162.035156 C 165.417969 161.441406 165.269531 160.90625 164.929688 160.4375 C 164.324219 159.597656 164.023438 158.597656 163.980469 157.28125 L 163.964844 156.941406 L 163.628906 156.941406 C 163.5 156.941406 163.472656 156.929688 163.367188 156.597656 L 163.332031 156.5 C 162.253906 153.300781 162.78125 150.535156 164.910156 148.261719 C 167.734375 145.246094 170.769531 143.78125 174.191406 143.78125 C 174.707031 143.78125 175.242188 143.816406 175.769531 143.878906 C 175.839844 143.886719 175.910156 143.902344 175.988281 143.914062 L 176.820312 144.046875 L 176.5 143.429688 C 176.261719 142.972656 176.078125 142.585938 175.925781 142.21875 C 175.882812 142.113281 175.847656 142.007812 175.8125 141.902344 L 191.785156 141.550781 L 193.425781 144.15625 L 193.496094 143.078125 C 193.539062 142.449219 193.496094 141.800781 193.371094 141.089844 L 193.3125 140.796875 L 192.003906 140.835938 Z M 183.183594 165.28125 C 183.183594 165.625 183.179688 165.976562 183.171875 166.324219 C 183.144531 167.578125 183.113281 168.878906 183.453125 170.160156 C 183.792969 171.449219 184.078125 171.683594 185.398438 171.71875 C 185.636719 171.722656 185.875 171.746094 186.109375 171.765625 L 186.472656 171.796875 L 187.75 171.765625 C 188.222656 171.710938 188.652344 171.648438 189.082031 171.582031 C 190.023438 171.449219 190.996094 171.308594 191.953125 171.238281 C 192.242188 171.21875 192.523438 171.203125 192.8125 171.195312 L 193.101562 171.195312 L 193.152344 170.90625 C 193.339844 169.871094 193.523438 169.011719 193.734375 168.195312 L 193.777344 168.042969 L 193.6875 167.90625 C 193.355469 167.429688 193.382812 166.878906 193.417969 166.246094 L 193.417969 166.175781 C 193.496094 164.851562 193.558594 163.535156 193.621094 162.210938 L 193.707031 160.386719 L 193.503906 160.28125 C 192.460938 159.753906 191.59375 159 190.6875 158.203125 C 190.355469 157.914062 190.023438 157.625 189.6875 157.351562 C 188.820312 156.648438 187.910156 155.859375 186.832031 154.878906 L 186.09375 154.210938 L 186.25 155.195312 C 186.8125 158.710938 185.199219 161.871094 183.777344 164.660156 C 183.65625 164.894531 183.628906 164.914062 183.566406 164.914062 L 183.214844 164.914062 L 183.183594 165.265625 Z M 192.121094 132.550781 C 191.363281 134.203125 190.417969 135.746094 189.328125 137.125 C 189.003906 137.535156 189.050781 137.921875 189.152344 138.175781 L 189.226562 138.378906 L 189.445312 138.402344 C 189.714844 138.421875 189.972656 138.429688 190.242188 138.429688 C 190.769531 138.429688 191.296875 138.394531 191.8125 138.359375 C 192.09375 138.335938 192.375 138.324219 192.65625 138.308594 L 193.011719 138.296875 L 192.792969 132.683594 Z M 192.121094 132.550781 " fill-opacity="1" fill-rule="nonzero"/><path fill="#222222" d="M 194.765625 278.546875 C 193.328125 272.046875 192.75 265.433594 192.144531 258.828125 C 191.53125 252.1875 191.144531 245.535156 190.890625 238.871094 C 190.679688 233.328125 191.046875 227.800781 191.199219 222.265625 C 191.292969 218.984375 191.074219 215.71875 190.898438 212.441406 C 190.582031 206.371094 190.523438 200.300781 191.074219 194.238281 C 191.441406 190.1875 191.691406 186.132812 191.8125 182.0625 C 191.953125 177.371094 192.214844 172.6875 193.382812 168.117188 C 194.222656 168.253906 195.03125 168.484375 195.828125 168.789062 C 198.804688 169.9375 201.847656 170.878906 204.914062 171.78125 C 207.066406 172.414062 209.285156 172.71875 211.511719 172.625 C 214.519531 172.507812 217.425781 171.753906 220.257812 170.765625 C 225.238281 169.035156 230.265625 167.597656 235.597656 167.613281 C 238.472656 174.464844 239.507812 181.71875 240.371094 189.027344 C 241.203125 196.042969 242.265625 203.019531 243.085938 210.035156 C 244.078125 218.511719 245.492188 226.921875 246.789062 235.351562 C 247.507812 240.039062 248.34375 244.710938 248.886719 249.429688 C 249.492188 254.703125 250.070312 259.984375 250.515625 265.273438 C 250.796875 268.625 251.054688 271.96875 251.304688 275.320312 C 251.367188 276.167969 251.339844 277.019531 251.367188 277.863281 C 251.394531 278.566406 251.15625 279.132812 250.578125 279.546875 C 250.078125 279.054688 249.550781 278.597656 248.878906 278.328125 C 246.578125 277.386719 244.359375 277.636719 242.230469 278.84375 C 240.316406 279.925781 238.625 281.328125 237.027344 282.84375 C 236.257812 282.390625 235.835938 281.667969 235.464844 280.890625 C 234.117188 278.089844 233.5625 275.109375 233.457031 272.03125 C 233.378906 269.96875 232.816406 268.03125 232.070312 266.125 C 230.40625 261.863281 228.632812 257.640625 227.378906 253.230469 C 225.710938 247.363281 224.851562 241.371094 224.710938 235.265625 C 224.589844 230.257812 223.992188 225.292969 222.808594 220.421875 C 222.089844 217.441406 220.6875 214.710938 219.625 211.851562 C 218.519531 208.886719 217.328125 205.957031 216.167969 203.011719 C 216.082031 202.789062 216.066406 202.511719 215.816406 202.363281 C 215.660156 202.464844 215.722656 202.613281 215.722656 202.730469 C 215.871094 208.148438 215.320312 213.5 214.484375 218.835938 C 213.671875 223.96875 213.207031 229.144531 212.828125 234.328125 C 212.449219 239.570312 212.066406 244.816406 212.34375 250.070312 C 212.511719 253.363281 212.925781 256.652344 213.066406 259.949219 C 213.347656 266.414062 213.414062 272.886719 212.34375 279.300781 C 212.257812 279.800781 212.109375 280.285156 211.992188 280.78125 C 211.320312 280.589844 210.660156 280.371094 209.988281 280.214844 C 206.003906 279.308594 201.941406 278.960938 197.875 278.632812 C 196.839844 278.546875 195.8125 278.363281 194.769531 278.527344 Z M 194.765625 278.546875 " fill-opacity="1" fill-rule="nonzero"/><path fill="#2183db" d="M 222.097656 96.738281 C 222.457031 96.640625 222.746094 96.761719 223.035156 96.984375 C 225.40625 98.789062 228.167969 99.484375 231.070312 99.796875 C 232.800781 99.980469 234.542969 100.175781 236.210938 100.753906 C 238.070312 101.402344 239.695312 102.34375 240.851562 103.980469 C 242.691406 106.589844 244.34375 109.304688 245.492188 112.300781 C 245.65625 112.726562 245.789062 113.15625 245.71875 113.621094 C 245.351562 113.839844 244.945312 113.9375 244.550781 114.070312 C 242.121094 114.910156 239.929688 116.113281 238.441406 118.316406 C 236.949219 117.386719 235.351562 117.238281 233.652344 117.585938 C 230.824219 118.160156 228.554688 119.472656 227.316406 122.230469 C 226.753906 123.5 226.25 124.78125 225.898438 126.121094 C 224.929688 129.765625 224.730469 133.507812 224.535156 137.246094 C 217.316406 137.40625 210.097656 137.578125 202.878906 137.738281 C 199.46875 137.816406 196.050781 137.886719 192.644531 137.957031 C 192.574219 136.203125 192.503906 134.449219 192.441406 132.691406 C 192.558594 130.570312 192.328125 128.464844 192.085938 126.367188 C 191.925781 124.992188 191.328125 123.851562 190.292969 122.84375 C 188.734375 121.335938 187.242188 119.753906 186.25 117.773438 C 186.199219 117.34375 186.234375 116.945312 186.417969 116.535156 C 187.539062 114.070312 188.671875 111.613281 189.917969 109.210938 C 190.480469 108.132812 191.207031 107.167969 191.953125 106.203125 C 193.628906 104.035156 196.011719 103.273438 198.558594 102.824219 C 200.058594 102.554688 201.546875 102.226562 202.871094 101.421875 C 203.449219 101.804688 203.722656 102.570312 204.414062 102.789062 C 205.617188 103.160156 205.890625 104.121094 206.066406 105.175781 C 206.117188 105.480469 206.1875 105.78125 206.25 106.085938 C 206.617188 107.703125 206.96875 109.332031 207.484375 110.914062 C 207.582031 111.210938 207.707031 111.542969 208.054688 111.597656 C 208.371094 111.648438 208.425781 111.308594 208.554688 111.105469 C 209.230469 110.027344 209.984375 109.015625 210.878906 108.097656 C 212.609375 106.332031 214.695312 105.035156 216.792969 103.753906 C 218.609375 102.640625 220.316406 101.394531 221.46875 99.554688 C 222.003906 98.703125 222.378906 97.78125 222.109375 96.734375 Z M 222.097656 96.738281 " fill-opacity="1" fill-rule="nonzero"/><path fill="#2183db" d="M 235.597656 167.617188 C 230.265625 167.613281 225.238281 169.042969 220.257812 170.773438 C 217.425781 171.757812 214.519531 172.511719 211.511719 172.632812 C 209.277344 172.722656 207.066406 172.421875 204.914062 171.789062 C 201.855469 170.886719 198.804688 169.9375 195.828125 168.796875 C 195.03125 168.492188 194.222656 168.257812 193.382812 168.125 C 192.96875 167.527344 193.015625 166.851562 193.058594 166.175781 C 193.164062 164.324219 193.242188 162.472656 193.335938 160.617188 C 193.585938 154.753906 193.734375 148.894531 193.164062 143.042969 C 193.207031 142.402344 193.15625 141.773438 193.039062 141.148438 C 196.390625 141.054688 199.742188 140.949219 203.09375 140.867188 C 210.277344 140.683594 217.46875 140.507812 224.652344 140.332031 C 224.75 142.40625 224.957031 144.476562 225.398438 146.519531 C 225.949219 149.046875 226.90625 151.40625 228.371094 153.554688 C 229.683594 155.476562 231.519531 156.554688 233.71875 157.117188 C 233.84375 158.125 233.992188 159.125 234.292969 160.097656 C 234.597656 161.992188 235.132812 163.808594 235.894531 165.570312 C 236.210938 166.300781 236.332031 167.035156 235.589844 167.625 Z M 235.597656 167.617188 " fill-opacity="1" fill-rule="nonzero"/><path fill="#222222" d="M 146.378906 142.324219 C 146.660156 146.921875 145.984375 151.300781 143.183594 155.113281 C 141.789062 157.007812 139.957031 158.289062 137.476562 158.273438 C 134.300781 158.261719 131.894531 156.878906 130.28125 154.140625 C 130.054688 153.753906 129.792969 153.492188 129.328125 153.402344 C 127.027344 152.984375 125.582031 151.570312 124.78125 149.421875 C 124.140625 147.71875 123.828125 145.941406 123.640625 144.140625 C 123.589844 143.695312 123.511719 143.253906 123.449219 142.800781 C 123.449219 141.753906 123.457031 140.703125 123.460938 139.65625 C 123.679688 137.921875 123.765625 136.167969 124.152344 134.457031 C 124.597656 132.484375 125.238281 130.589844 126.390625 128.914062 C 127.125 127.84375 128.035156 127 129.5 127.445312 C 129.914062 127.570312 129.96875 127.253906 130.105469 127.027344 C 130.84375 125.773438 131.730469 124.660156 132.898438 123.773438 C 136.289062 121.21875 140.308594 121.675781 142.976562 124.980469 C 145.210938 127.746094 146.191406 131.027344 146.71875 134.476562 C 146.949219 135.964844 146.941406 137.457031 146.796875 138.949219 C 146.550781 138.992188 146.300781 139.054688 146.050781 139.0625 C 143.625 139.148438 141.210938 139.21875 138.789062 139.289062 C 137.222656 139.332031 137.089844 139.492188 137.421875 141.050781 C 137.464844 141.238281 137.527344 141.429688 137.597656 141.613281 C 137.808594 142.167969 138.140625 142.484375 138.800781 142.40625 C 139.472656 142.332031 140.152344 142.34375 140.832031 142.335938 C 142.683594 142.324219 144.535156 142.332031 146.386719 142.324219 Z M 146.378906 142.324219 " fill-opacity="1" fill-rule="nonzero"/><path fill="#472915" d="M 222.097656 96.738281 C 222.371094 97.789062 222 98.710938 221.457031 99.5625 C 220.300781 101.402344 218.597656 102.648438 216.78125 103.761719 C 214.6875 105.042969 212.601562 106.339844 210.863281 108.105469 C 209.96875 109.015625 209.214844 110.027344 208.539062 111.113281 C 208.414062 111.316406 208.347656 111.660156 208.039062 111.605469 C 207.703125 111.550781 207.566406 111.21875 207.46875 110.921875 C 206.953125 109.339844 206.601562 107.710938 206.238281 106.089844 C 206.164062 105.789062 206.101562 105.484375 206.054688 105.183594 C 205.878906 104.125 205.601562 103.167969 204.398438 102.796875 C 203.707031 102.585938 203.441406 101.816406 202.855469 101.429688 C 201.179688 98.972656 199.988281 96.238281 198.609375 93.621094 C 197.890625 92.253906 197.566406 90.753906 197.628906 89.199219 C 197.6875 87.699219 197.375 86.304688 196.722656 84.945312 C 195.730469 82.878906 196.039062 80.699219 196.328125 78.535156 C 196.410156 78.464844 196.488281 78.367188 196.585938 78.324219 C 197.242188 78.019531 197.75 77.472656 198.6875 77.949219 C 199.265625 78.246094 199.910156 78.578125 200.574219 78.753906 C 202.328125 79.203125 203.96875 78.628906 205.503906 77.980469 C 207.117188 77.296875 208.636719 76.359375 210.25 75.632812 C 210.8125 75.378906 211.355469 75.148438 211.878906 75.691406 C 212.371094 76.199219 212.214844 76.773438 212.011719 77.34375 C 211.898438 77.664062 211.707031 77.957031 211.632812 78.28125 C 211.363281 79.34375 211.273438 80.449219 211.992188 81.359375 C 213.054688 82.71875 214.1875 84.035156 215.554688 85.121094 C 216.160156 85.597656 216.671875 85.445312 216.941406 84.734375 C 217.441406 83.386719 217.914062 82.015625 219.285156 81.238281 C 220.222656 80.710938 221.089844 80.878906 221.722656 81.738281 C 221.921875 82.007812 222.019531 82.359375 222.34375 82.519531 C 222.457031 84.238281 222.535156 85.957031 221.84375 87.605469 C 221.5625 88.289062 221.292969 89 220.773438 89.515625 C 220.195312 90.085938 220.25 90.691406 220.335938 91.375 C 220.570312 93.28125 221.265625 95.027344 222.082031 96.738281 Z M 222.097656 96.738281 " fill-opacity="1" fill-rule="nonzero"/><g clip-path="url(#cc12bc48cc)"><path fill="#222222" d="M 222.363281 82.527344 C 222.039062 82.359375 221.941406 82.007812 221.746094 81.746094 C 221.109375 80.886719 220.238281 80.71875 219.308594 81.246094 C 217.933594 82.019531 217.460938 83.386719 216.960938 84.738281 C 216.695312 85.457031 216.179688 85.613281 215.574219 85.128906 C 214.207031 84.042969 213.082031 82.726562 212.011719 81.367188 C 211.300781 80.457031 211.382812 79.351562 211.652344 78.289062 C 211.738281 77.964844 211.917969 77.667969 212.03125 77.351562 C 212.230469 76.78125 212.390625 76.203125 211.898438 75.699219 C 211.378906 75.164062 210.835938 75.386719 210.273438 75.640625 C 208.660156 76.359375 207.144531 77.296875 205.523438 77.984375 C 203.988281 78.640625 202.347656 79.21875 200.59375 78.761719 C 199.925781 78.585938 199.277344 78.253906 198.707031 77.957031 C 197.769531 77.480469 197.265625 78.027344 196.609375 78.332031 C 196.511719 78.375 196.433594 78.472656 196.347656 78.542969 C 195.566406 78.699219 194.882812 78.5625 194.40625 77.859375 C 194.300781 77.710938 194.152344 77.664062 193.988281 77.59375 C 192.90625 77.09375 192.585938 76.386719 192.988281 75.273438 C 193.101562 74.949219 193.058594 74.667969 193.023438 74.367188 C 192.953125 73.734375 193.101562 73.0625 193.65625 72.808594 C 194.539062 72.410156 195.117188 71.5625 196.066406 71.304688 C 196.144531 71.28125 196.277344 71.253906 196.292969 71.203125 C 196.550781 70.199219 197.636719 69.878906 198.082031 69.035156 C 198.144531 68.910156 198.214844 68.746094 198.320312 68.699219 C 200.003906 67.902344 201.039062 65.988281 203.128906 65.894531 C 203.242188 65.894531 203.425781 65.894531 203.453125 65.832031 C 203.976562 64.734375 205.265625 64.9375 206.054688 64.304688 C 206.347656 64.070312 206.722656 63.914062 207.082031 63.957031 C 207.976562 64.0625 208.925781 63.867188 209.75 64.105469 C 210.84375 64.421875 211.949219 64.746094 213.019531 65.15625 C 213.960938 65.515625 214.933594 65.945312 216.011719 65.78125 C 217.222656 65.597656 218.257812 66.234375 219.167969 66.804688 C 220.152344 67.429688 220.984375 68.378906 221.492188 69.535156 C 221.976562 70.632812 222.574219 71.664062 222.878906 72.867188 C 223.238281 74.308594 223.371094 75.738281 223.28125 77.203125 C 223.238281 77.910156 223.195312 78.621094 223.238281 79.316406 C 223.316406 80.492188 222.84375 81.507812 222.371094 82.527344 Z M 222.363281 82.527344 " fill-opacity="1" fill-rule="nonzero"/></g><path fill="#472915" d="M 234.292969 160.082031 C 233.992188 159.113281 233.84375 158.113281 233.71875 157.105469 C 234.757812 157.132812 235.789062 157.148438 236.808594 156.851562 C 239.378906 156.113281 240.921875 154.324219 241.902344 151.949219 C 242.070312 151.542969 242.121094 151.082031 242.621094 150.871094 C 245.027344 149.859375 246.097656 147.832031 246.773438 145.464844 C 247.289062 143.640625 247.386719 141.761719 247.632812 139.902344 C 247.832031 139.886719 248.019531 139.871094 248.21875 139.867188 C 250.105469 139.808594 251.984375 139.78125 253.875 139.695312 C 254.953125 139.648438 255.621094 139 255.605469 138.121094 C 255.59375 137.238281 254.894531 136.648438 253.808594 136.605469 C 253.527344 136.589844 253.246094 136.621094 252.964844 136.621094 C 251.191406 136.640625 249.421875 136.660156 247.648438 136.683594 C 247.554688 136.332031 247.421875 135.984375 247.445312 135.605469 C 247.515625 134.160156 247.386719 132.738281 247.113281 131.324219 C 246.519531 128.359375 245.335938 125.796875 242.464844 124.359375 C 242.097656 124.175781 241.929688 123.910156 241.835938 123.519531 C 241.535156 122.265625 240.964844 121.167969 240.140625 120.15625 C 239.605469 119.5 238.902344 119.019531 238.429688 118.324219 C 239.914062 116.121094 242.105469 114.914062 244.542969 114.078125 C 244.945312 113.945312 245.34375 113.839844 245.710938 113.625 C 246.449219 115.125 247.527344 116.386719 248.851562 117.351562 C 252.429688 119.949219 254.542969 123.484375 255.691406 127.667969 C 256.261719 129.746094 256.917969 131.773438 258.058594 133.625 C 259.164062 135.421875 259 137.246094 257.957031 139.007812 C 255.789062 142.667969 253.304688 146.0625 250.140625 148.964844 C 247.332031 151.542969 244.675781 154.289062 241.765625 156.761719 C 240.386719 157.9375 238.894531 158.949219 237.308594 159.835938 C 236.351562 160.378906 235.351562 160.78125 234.28125 160.078125 Z M 234.292969 160.082031 " fill-opacity="1" fill-rule="nonzero"/><path fill="#efefef" d="M 194.765625 278.546875 C 195.804688 278.386719 196.835938 278.566406 197.871094 278.652344 C 201.933594 278.984375 205.996094 279.328125 209.984375 280.238281 C 210.660156 280.390625 211.320312 280.609375 211.984375 280.800781 C 212.625 281.554688 212.695312 282.503906 212.800781 283.421875 C 212.914062 284.34375 212.921875 285.273438 212.96875 286.203125 C 212.539062 286.519531 212.066406 286.792969 211.679688 287.152344 C 208.808594 289.828125 205.46875 290.457031 201.699219 289.609375 C 198.1875 288.820312 194.609375 288.609375 191.015625 289.039062 C 189.101562 289.273438 187.257812 289.808594 185.453125 290.457031 C 183.269531 291.230469 181.46875 290.597656 179.882812 289.082031 C 179.515625 288.730469 179.207031 288.328125 178.867188 287.949219 C 178.183594 287.195312 177.410156 286.617188 176.339844 286.574219 C 176.53125 284.6875 177.847656 283.1875 179.910156 282.792969 C 181.902344 282.414062 183.933594 282.25 185.9375 281.921875 C 188.9375 281.425781 191.839844 280.632812 194.390625 278.878906 C 194.523438 278.785156 194.636719 278.660156 194.765625 278.546875 Z M 194.765625 278.546875 " fill-opacity="1" fill-rule="nonzero"/><path fill="#efefef" d="M 146.378906 142.324219 C 144.527344 142.324219 142.675781 142.324219 140.824219 142.335938 C 140.148438 142.335938 139.464844 142.335938 138.792969 142.40625 C 138.132812 142.484375 137.792969 142.167969 137.589844 141.613281 C 137.519531 141.429688 137.449219 141.238281 137.414062 141.050781 C 137.089844 139.492188 137.222656 139.332031 138.78125 139.289062 C 141.203125 139.21875 143.617188 139.148438 146.042969 139.0625 C 146.289062 139.054688 146.542969 138.984375 146.789062 138.949219 C 148.621094 139.113281 150.457031 139.007812 152.289062 138.964844 C 159.515625 138.800781 166.742188 138.625 173.972656 138.449219 C 174.171875 138.449219 174.367188 138.414062 174.566406 138.394531 C 179.539062 138.28125 184.503906 138.167969 189.472656 138.0625 C 190.539062 138.148438 191.585938 138.019531 192.644531 137.972656 C 196.050781 137.902344 199.46875 137.832031 202.878906 137.753906 C 210.097656 137.589844 217.316406 137.429688 224.535156 137.261719 C 224.574219 138.28125 224.617188 139.300781 224.660156 140.324219 C 217.476562 140.5 210.285156 140.675781 203.101562 140.859375 C 199.75 140.941406 196.398438 141.046875 193.046875 141.140625 C 192.691406 141.15625 192.347656 141.160156 191.996094 141.175781 L 175.359375 141.542969 C 170.066406 141.675781 164.777344 141.816406 159.480469 141.941406 C 155.480469 142.042969 151.480469 142.113281 147.476562 142.203125 C 147.113281 142.210938 146.753906 142.28125 146.386719 142.324219 Z M 146.378906 142.324219 " fill-opacity="1" fill-rule="nonzero"/><path fill="#472915" d="M 189.472656 138.054688 C 184.503906 138.167969 179.539062 138.28125 174.566406 138.386719 C 174.355469 136.007812 175.085938 133.832031 176.03125 131.695312 C 178.402344 126.296875 181.820312 121.667969 186.25 117.78125 C 187.234375 119.753906 188.734375 121.34375 190.292969 122.851562 C 191.332031 123.859375 191.933594 125 192.085938 126.371094 C 192.328125 128.472656 192.558594 130.578125 192.441406 132.695312 C 191.671875 134.359375 190.734375 135.90625 189.601562 137.34375 C 189.433594 137.5625 189.375 137.789062 189.472656 138.050781 Z M 189.472656 138.054688 " fill-opacity="1" fill-rule="nonzero"/><path fill="#efefef" d="M 237.027344 282.851562 C 238.617188 281.335938 240.308594 279.933594 242.230469 278.851562 C 244.359375 277.644531 246.570312 277.390625 248.878906 278.335938 C 249.550781 278.609375 250.078125 279.0625 250.578125 279.554688 C 251.429688 281.257812 252.507812 282.84375 253.253906 284.609375 C 253.964844 286.292969 254.851562 287.90625 254.988281 289.78125 C 255.015625 290.195312 255.027344 290.617188 255.050781 291.039062 C 254.351562 291.511719 253.675781 292.027344 252.949219 292.449219 C 252.0625 292.96875 251.128906 293.171875 250.132812 292.671875 C 247.648438 291.425781 245.027344 291.398438 242.472656 292.207031 C 240.046875 292.976562 237.796875 293.238281 235.617188 291.660156 C 235.257812 290.816406 235.351562 289.933594 235.535156 289.089844 C 235.992188 287.003906 236.527344 284.933594 237.027344 282.855469 Z M 237.027344 282.851562 " fill-opacity="1" fill-rule="nonzero"/><path fill="#472915" d="M 175.355469 141.542969 C 180.894531 141.421875 186.445312 141.296875 191.988281 141.175781 C 192.382812 141.796875 192.769531 142.414062 193.164062 143.035156 C 193.742188 148.886719 193.585938 154.753906 193.335938 160.613281 C 191.855469 159.867188 190.714844 158.667969 189.460938 157.640625 C 186.136719 154.921875 183.101562 151.902344 180.085938 148.859375 C 178.207031 146.957031 176.679688 144.808594 175.621094 142.335938 C 175.507812 142.085938 175.445312 141.808594 175.359375 141.542969 Z M 175.355469 141.542969 " fill-opacity="1" fill-rule="nonzero"/><path fill="#222222" d="M 176.347656 286.574219 C 177.417969 286.617188 178.191406 287.195312 178.875 287.949219 C 179.214844 288.328125 179.523438 288.730469 179.890625 289.082031 C 181.480469 290.601562 183.285156 291.238281 185.460938 290.457031 C 187.269531 289.808594 189.109375 289.273438 191.023438 289.039062 C 194.617188 288.609375 198.195312 288.816406 201.707031 289.609375 C 205.476562 290.457031 208.8125 289.828125 211.6875 287.152344 C 212.074219 286.792969 212.546875 286.511719 212.976562 286.203125 C 213.167969 290.246094 211.738281 291.820312 207.671875 292.054688 C 206.242188 292.136719 204.855469 291.863281 203.484375 291.554688 C 198.617188 290.441406 193.804688 290.566406 189.015625 291.984375 C 186.734375 292.660156 184.398438 293.039062 181.996094 292.785156 C 179.039062 292.46875 176.785156 290.660156 176.304688 288.160156 C 176.207031 287.632812 176.144531 287.097656 176.332031 286.574219 Z M 176.347656 286.574219 " fill-opacity="1" fill-rule="nonzero"/><path fill="#222222" d="M 235.617188 291.644531 C 237.796875 293.222656 240.046875 292.960938 242.472656 292.195312 C 245.027344 291.386719 247.65625 291.414062 250.132812 292.660156 C 251.132812 293.160156 252.0625 292.957031 252.949219 292.433594 C 253.675781 292.011719 254.351562 291.496094 255.050781 291.027344 C 255.027344 293.066406 253.878906 294.238281 252.0625 294.886719 C 251.367188 295.132812 250.640625 295.292969 249.910156 295.316406 C 246.71875 295.398438 243.527344 295.285156 240.335938 295.171875 C 239.097656 295.132812 237.957031 294.679688 236.984375 293.886719 C 236.273438 293.308594 235.6875 292.625 235.617188 291.636719 Z M 235.617188 291.644531 " fill-opacity="1" fill-rule="nonzero"/><path fill="#efefef" d="M 123.460938 139.65625 C 123.460938 140.703125 123.457031 141.753906 123.449219 142.800781 C 122.890625 142.800781 122.328125 142.84375 121.773438 142.796875 C 120.84375 142.703125 120.179688 142.027344 120.179688 141.246094 C 120.179688 140.484375 120.792969 139.84375 121.703125 139.730469 C 122.28125 139.660156 122.878906 139.683594 123.460938 139.660156 Z M 123.460938 139.65625 " fill-opacity="1" fill-rule="nonzero"/><path fill="#222222" d="M 224.660156 140.316406 C 224.617188 139.296875 224.574219 138.273438 224.535156 137.253906 C 224.730469 133.515625 224.929688 129.773438 225.898438 126.125 C 226.257812 124.789062 226.753906 123.507812 227.316406 122.238281 C 228.546875 119.480469 230.816406 118.167969 233.652344 117.589844 C 235.351562 117.246094 236.949219 117.394531 238.441406 118.324219 C 238.914062 119.019531 239.617188 119.5 240.15625 120.15625 C 240.976562 121.167969 241.546875 122.265625 241.851562 123.519531 C 241.941406 123.910156 242.113281 124.175781 242.476562 124.359375 C 245.351562 125.796875 246.535156 128.359375 247.125 131.324219 C 247.410156 132.738281 247.527344 134.167969 247.457031 135.605469 C 247.4375 135.984375 247.578125 136.324219 247.660156 136.683594 C 247.34375 136.84375 247.007812 136.816406 246.667969 136.816406 C 245.261719 136.816406 243.84375 136.816406 242.4375 136.84375 C 242.203125 136.84375 241.914062 136.753906 241.765625 137.054688 C 241.308594 137.976562 242.253906 139.632812 243.261719 139.730469 C 244.726562 139.871094 246.195312 139.683594 247.65625 139.902344 C 247.402344 141.761719 247.308594 143.640625 246.796875 145.464844 C 246.125 147.832031 245.050781 149.867188 242.640625 150.871094 C 242.140625 151.082031 242.089844 151.542969 241.921875 151.949219 C 240.941406 154.332031 239.402344 156.113281 236.832031 156.851562 C 235.808594 157.148438 234.773438 157.132812 233.738281 157.105469 C 231.542969 156.542969 229.695312 155.464844 228.394531 153.542969 C 226.929688 151.394531 225.976562 149.035156 225.421875 146.507812 C 224.976562 144.464844 224.78125 142.402344 224.675781 140.316406 Z M 224.660156 140.316406 " fill-opacity="1" fill-rule="nonzero"/><path fill="#efefef" d="M 247.648438 139.902344 C 246.191406 139.683594 244.71875 139.871094 243.253906 139.730469 C 242.246094 139.632812 241.300781 137.976562 241.761719 137.054688 C 241.914062 136.753906 242.195312 136.84375 242.429688 136.84375 C 243.835938 136.824219 245.253906 136.824219 246.660156 136.816406 C 247 136.816406 247.339844 136.84375 247.65625 136.683594 C 249.429688 136.660156 251.199219 136.640625 252.972656 136.621094 C 253.253906 136.621094 253.535156 136.589844 253.816406 136.605469 C 254.902344 136.648438 255.597656 137.238281 255.613281 138.121094 C 255.628906 139 254.957031 139.648438 253.878906 139.695312 C 252 139.78125 250.113281 139.808594 248.226562 139.867188 C 248.027344 139.867188 247.839844 139.886719 247.640625 139.902344 Z M 247.648438 139.902344 " fill-opacity="1" fill-rule="nonzero"/><path fill="#2183db" d="M 194.207031 223.539062 C 194.726562 223.519531 195.023438 223.828125 195.285156 224.230469 C 197.53125 227.640625 198.871094 231.386719 199.445312 235.40625 C 199.769531 237.667969 199.636719 239.898438 199.125 242.132812 C 198.707031 243.949219 199.199219 245.78125 199.371094 247.605469 C 199.714844 251.371094 200.566406 255.070312 200.777344 258.851562 C 199.503906 258.320312 198.265625 257.722656 196.910156 257.40625 C 193.277344 256.5625 189.652344 256.027344 186.058594 257.589844 C 185.847656 257.292969 185.902344 256.949219 185.882812 256.609375 C 185.757812 254.765625 185.636719 252.925781 185.515625 251.082031 C 185.613281 249.273438 185.347656 247.46875 185.363281 245.667969 C 185.363281 244.894531 185.074219 244.535156 184.3125 244.449219 C 182.75 244.265625 181.304688 243.722656 179.929688 242.957031 C 179.15625 242.527344 178.332031 242.292969 177.4375 242.210938 C 176.21875 242.097656 175.007812 242.082031 173.796875 242.125 C 169.359375 242.285156 164.929688 242.476562 160.5 242.632812 C 157.027344 242.75 153.550781 242.820312 150.078125 242.957031 C 147.300781 243.0625 145.878906 244.089844 145.296875 246.300781 C 142.597656 246.300781 139.957031 246.652344 137.40625 247.5625 C 136.363281 247.933594 136.371094 248.003906 136.78125 249.011719 C 138.324219 252.84375 139.457031 256.785156 139.90625 260.90625 C 138.773438 260.714844 137.652344 260.433594 136.492188 260.351562 C 133.292969 260.117188 130.257812 260.652344 127.386719 262.082031 C 126.652344 259.039062 125.890625 256 125.203125 252.949219 C 124.570312 250.140625 123.78125 247.355469 123.484375 244.492188 C 122.996094 239.746094 124.046875 237.828125 128.285156 235.617188 C 132.433594 233.457031 136.828125 231.894531 141.238281 230.386719 C 147.789062 228.140625 154.386719 226.046875 161.148438 224.539062 C 163.15625 224.089844 165.183594 223.695312 167.199219 223.273438 C 168.675781 223.746094 170.140625 224.253906 171.628906 224.6875 C 176.085938 226.011719 180.59375 226.351562 185.183594 225.46875 C 188.207031 224.894531 191.164062 224.011719 194.207031 223.527344 Z M 194.207031 223.539062 " fill-opacity="1" fill-rule="nonzero"/><path fill="#d8976a" d="M 183.539062 165.28125 C 183.539062 166.878906 183.375 168.492188 183.792969 170.070312 C 184.085938 171.203125 184.234375 171.332031 185.402344 171.367188 C 185.769531 171.378906 186.136719 171.421875 186.496094 171.449219 C 184.507812 173.929688 183.207031 176.757812 182.171875 179.738281 C 181.761719 180.90625 181.367188 182.082031 180.9375 183.253906 C 180.628906 184.082031 180.015625 184.554688 179.136719 184.738281 C 177.945312 184.984375 176.734375 185.097656 175.523438 185.167969 C 173.4375 185.300781 171.355469 185.4375 169.269531 185.546875 C 168.382812 185.597656 168.277344 185.429688 168.558594 184.578125 C 168.683594 184.203125 168.816406 183.828125 168.964844 183.464844 C 169.925781 181.167969 171.015625 178.941406 172.171875 176.738281 C 172.3125 176.464844 172.515625 176.1875 172.246094 175.886719 C 172.140625 175.765625 171.980469 175.582031 171.824219 175.675781 C 171.585938 175.808594 171.355469 176 171.183594 176.210938 C 169.277344 178.632812 166.992188 180.71875 164.988281 183.046875 C 159.980469 183.183594 155.253906 182.054688 150.753906 179.902344 C 149.410156 179.257812 148.753906 178.230469 148.71875 176.683594 C 148.632812 172.984375 149.589844 169.472656 150.542969 165.972656 C 151.992188 160.625 153.914062 155.4375 156.121094 150.359375 C 156.59375 149.273438 157.070312 148.191406 157.570312 147.113281 C 157.789062 146.648438 157.773438 146.167969 157.683594 145.703125 C 157.492188 144.691406 157.710938 143.746094 158.105469 142.824219 C 158.421875 142.078125 159.042969 141.808594 159.824219 141.902344 C 162.078125 142.175781 164.339844 141.964844 166.59375 142.007812 C 166.9375 142.007812 167.113281 141.832031 167.210938 141.542969 C 167.316406 141.21875 167.453125 140.902344 167.5 140.570312 C 167.558594 140.183594 167.816406 139.710938 167.277344 139.457031 C 166.710938 139.195312 166.171875 139.21875 165.746094 139.738281 C 165.550781 139.976562 165.417969 140.265625 165.226562 140.511719 C 164.480469 141.472656 163.246094 141.816406 161.945312 141.449219 C 161.105469 141.21875 160.386719 140.324219 160.28125 139.394531 C 160.175781 138.40625 160.621094 137.511719 161.570312 137.132812 C 163.304688 136.4375 165.105469 136.15625 166.945312 136.695312 C 168.953125 137.28125 169.71875 139.984375 168.359375 141.640625 C 167.246094 143 165.988281 144.203125 164.597656 145.28125 C 163.917969 145.808594 163.417969 146.449219 163.15625 147.308594 C 162.085938 150.824219 161.457031 154.429688 160.789062 158.027344 C 159.894531 162.84375 159.375 167.71875 158.523438 172.542969 C 158.394531 173.257812 158.621094 173.222656 159.164062 173.105469 C 162.527344 172.367188 165.9375 172.386719 169.347656 172.667969 C 169.488281 172.683594 169.628906 172.695312 169.769531 172.683594 C 169.980469 172.660156 170.253906 172.808594 170.367188 172.535156 C 170.445312 172.335938 170.277344 172.160156 170.171875 172 C 169.21875 170.5625 168.140625 169.222656 167.070312 167.878906 C 165.691406 166.148438 164.8125 164.246094 165.015625 161.957031 C 165.0625 161.457031 164.9375 160.992188 164.648438 160.597656 C 163.921875 159.597656 163.675781 158.457031 163.632812 157.246094 C 163.8125 156.632812 163.632812 156.007812 163.699219 155.394531 C 163.804688 154.402344 163.917969 153.414062 164.988281 152.90625 C 168.332031 151.308594 171.761719 150.9375 175.25 152.34375 C 177.15625 153.117188 178.902344 154.183594 179.507812 156.386719 C 179.523438 156.441406 179.550781 156.492188 179.578125 156.542969 C 179.691406 156.800781 179.875 156.957031 180.171875 156.921875 C 180.472656 156.886719 180.480469 156.632812 180.507812 156.40625 C 180.550781 156.070312 180.550781 155.726562 180.628906 155.402344 C 180.796875 154.703125 181.179688 154.148438 181.898438 153.9375 C 182.574219 153.738281 183.023438 154.160156 183.433594 154.605469 C 185.234375 156.542969 185.558594 159.554688 183.945312 161.613281 C 182.980469 162.84375 183.261719 164 183.53125 165.253906 Z M 183.539062 165.28125 " fill-opacity="1" fill-rule="nonzero"/><path fill="#d8976a" d="M 187.734375 171.429688 C 189.128906 171.246094 190.523438 171.007812 191.925781 170.902344 C 193.800781 170.753906 195.644531 170.921875 197.398438 171.695312 C 199.671875 172.703125 202.058594 172.683594 204.46875 172.457031 C 205.476562 172.359375 206.488281 172.300781 207.496094 172.21875 C 207.722656 172.195312 207.941406 172.152344 208.167969 172.117188 C 208.84375 172.011719 209.019531 171.710938 208.785156 171.007812 C 207.558594 167.28125 206.46875 163.511719 205.6875 159.667969 C 205.230469 157.40625 204.890625 155.117188 204.609375 152.832031 C 204.222656 149.765625 203.347656 146.878906 201.828125 144.191406 C 201.265625 143.195312 201.207031 142.15625 201.53125 141.085938 C 201.660156 140.65625 201.792969 140.449219 202.390625 140.449219 C 203.769531 140.449219 205.160156 140.230469 206.773438 140.085938 C 206.023438 139.535156 205.59375 139.035156 205.398438 138.367188 C 205.328125 138.125 205.101562 138.140625 204.90625 138.140625 C 204.59375 138.132812 204.285156 138.132812 203.976562 138.121094 C 203.625 138.105469 203.257812 138.019531 203.125 137.675781 C 202.988281 137.324219 203.222656 137 203.496094 136.796875 C 204.222656 136.238281 204.855469 135.476562 205.917969 135.578125 C 206.171875 135.597656 206.320312 135.4375 206.453125 135.230469 C 207.363281 133.914062 208.6875 133.5625 210.179688 133.765625 C 210.984375 133.871094 211.785156 134.089844 212.5625 134.34375 C 214.765625 135.0625 215.351562 136.761719 214.074219 138.71875 C 212.96875 140.414062 212.238281 142.34375 210.84375 143.851562 C 210.566406 144.15625 210.808594 144.421875 210.898438 144.710938 C 212.625 150.238281 214.886719 155.5625 217.097656 160.90625 C 218.238281 163.667969 218.511719 166.640625 218.984375 169.554688 C 219.265625 171.300781 219.511719 173.0625 219.757812 174.816406 C 219.925781 176.027344 219.976562 177.257812 219.785156 178.449219 C 219.496094 180.273438 218.144531 181.210938 216.449219 181.492188 C 214.011719 181.902344 211.554688 182.21875 209.082031 182.421875 C 205.554688 182.71875 202.003906 182.84375 198.511719 183.519531 C 197.941406 183.632812 197.734375 183.886719 197.6875 184.371094 C 197.609375 185.125 197.460938 185.871094 197.460938 186.640625 C 197.445312 188.738281 197.011719 190.773438 196.425781 192.78125 C 195.6875 192.605469 194.933594 192.472656 194.207031 192.246094 C 190.621094 191.125 187.769531 189.152344 186.367188 185.492188 C 185.328125 182.78125 185.347656 180.046875 186.007812 177.257812 C 186.480469 175.28125 187.15625 173.371094 187.777344 171.449219 Z M 187.734375 171.429688 " fill-opacity="1" fill-rule="nonzero"/><path fill="#fd5825" d="M 196.425781 192.589844 C 196.195312 192.535156 195.953125 192.484375 195.722656 192.429688 C 195.230469 192.324219 194.714844 192.203125 194.222656 192.054688 C 190.261719 190.824219 187.734375 188.648438 186.496094 185.40625 C 185.542969 182.929688 185.433594 180.273438 186.144531 177.28125 C 186.515625 175.722656 187.023438 174.175781 187.515625 172.683594 C 187.652344 172.28125 187.777344 171.886719 187.910156 171.484375 L 187.988281 171.253906 L 186.417969 171.289062 L 186.367188 171.351562 C 184.613281 173.542969 183.226562 176.1875 182.007812 179.6875 L 181.714844 180.554688 C 181.410156 181.441406 181.101562 182.324219 180.777344 183.203125 C 180.503906 183.957031 179.953125 184.40625 179.101562 184.582031 C 177.859375 184.84375 176.59375 184.941406 175.515625 185.011719 L 174.375 185.082031 C 172.671875 185.1875 170.964844 185.300781 169.261719 185.394531 C 169.121094 185.394531 168.699219 185.421875 168.621094 185.324219 C 168.542969 185.21875 168.683594 184.792969 168.726562 184.652344 C 168.875 184.210938 169 183.863281 169.128906 183.554688 C 169.980469 181.511719 171 179.378906 172.324219 176.84375 L 172.367188 176.757812 C 172.507812 176.507812 172.699219 176.152344 172.382812 175.792969 C 172.277344 175.675781 172.023438 175.386719 171.742188 175.542969 C 171.472656 175.6875 171.226562 175.902344 171.050781 176.125 C 169.953125 177.511719 168.710938 178.816406 167.515625 180.078125 C 166.628906 181.007812 165.710938 181.964844 164.859375 182.957031 L 164.824219 183 L 164.824219 183.054688 C 164.804688 183.195312 164.707031 183.300781 164.59375 183.429688 C 164.542969 183.484375 164.492188 183.535156 164.453125 183.589844 C 162.597656 185.9375 161.445312 188.089844 160.824219 190.394531 C 159.964844 193.578125 160.429688 196.328125 162.238281 198.800781 C 162.867188 199.652344 163.628906 200.378906 164.359375 201.070312 C 164.832031 201.511719 165.316406 201.96875 165.753906 202.457031 L 165.796875 202.503906 L 165.859375 202.503906 C 166.78125 202.640625 167.699219 202.789062 168.613281 202.929688 C 171.339844 203.351562 174.15625 203.792969 176.980469 203.792969 C 177.179688 203.792969 177.367188 203.792969 177.566406 203.792969 C 183.855469 203.652344 188.988281 203.042969 193.707031 201.863281 L 193.796875 201.84375 L 193.828125 201.753906 C 194.046875 201.082031 194.269531 200.414062 194.496094 199.746094 C 195.25 197.507812 196.03125 195.183594 196.550781 192.824219 L 196.585938 192.652344 L 196.417969 192.613281 Z M 196.425781 192.589844 " fill-opacity="1" fill-rule="nonzero"/><path fill="#d8976a" d="M 165.882812 202.324219 C 169.761719 202.859375 173.621094 203.683594 177.566406 203.589844 C 182.988281 203.46875 188.382812 202.984375 193.664062 201.667969 C 193.015625 204.140625 192.363281 206.613281 192.082031 209.160156 C 191.582031 213.632812 191.714844 218.027344 193.664062 222.203125 C 193.871094 222.632812 194.023438 223.089844 194.207031 223.527344 C 191.164062 224.011719 188.214844 224.886719 185.183594 225.46875 C 180.59375 226.351562 176.078125 226.011719 171.628906 224.6875 C 170.140625 224.246094 168.675781 223.746094 167.199219 223.273438 C 167.875 221.789062 168.640625 220.328125 168.917969 218.695312 C 169.332031 216.265625 169.128906 213.878906 168.453125 211.503906 C 167.796875 209.222656 166.859375 207.039062 166.347656 204.71875 C 166.171875 203.921875 166.035156 203.117188 165.882812 202.316406 Z M 165.882812 202.324219 " fill-opacity="1" fill-rule="nonzero"/><path fill="#d8976a" d="M 186.058594 257.597656 C 189.652344 256.027344 193.277344 256.570312 196.910156 257.40625 C 198.265625 257.722656 199.511719 258.320312 200.777344 258.851562 C 200.933594 262.941406 200.742188 267.003906 200.03125 271.054688 C 199.644531 273.265625 199.546875 275.527344 199.285156 277.757812 C 199.058594 279.746094 198.769531 281.714844 198.550781 283.703125 C 198.320312 285.746094 198.179688 287.792969 197.917969 289.828125 C 197.757812 291.074219 197.96875 292.378906 197.390625 293.566406 C 194.785156 292.816406 192.328125 293.222656 189.988281 294.53125 C 189.742188 293.03125 189.523438 291.53125 189.59375 290.003906 C 189.601562 289.84375 189.546875 289.679688 189.515625 289.519531 C 189.488281 285.738281 189.046875 281.992188 188.488281 278.265625 C 188.066406 275.433594 187.539062 272.617188 187.058594 269.785156 C 187.039062 269.390625 187.058594 268.992188 187.003906 268.609375 C 186.410156 264.960938 186.179688 261.285156 186.058594 257.597656 Z M 186.058594 257.597656 " fill-opacity="1" fill-rule="nonzero"/><path fill="#f0f0f0" d="M 145.296875 246.300781 C 145.878906 244.089844 147.300781 243.0625 150.078125 242.957031 C 153.550781 242.820312 157.027344 242.757812 160.5 242.632812 C 164.9375 242.476562 169.367188 242.285156 173.796875 242.125 C 175.007812 242.082031 176.21875 242.097656 177.4375 242.210938 C 178.332031 242.292969 179.15625 242.527344 179.929688 242.957031 C 181.296875 243.722656 182.75 244.265625 184.3125 244.449219 C 185.066406 244.535156 185.363281 244.898438 185.363281 245.667969 C 185.355469 247.476562 185.613281 249.273438 185.515625 251.082031 C 183.933594 251.195312 182.355469 251.308594 180.769531 251.421875 C 179.988281 251.074219 179.191406 251.214844 178.402344 251.398438 C 174.339844 251.398438 170.277344 251.320312 166.21875 251.449219 C 162.953125 251.554688 159.683594 251.703125 156.414062 251.554688 C 155.5625 251.355469 154.710938 251.152344 153.859375 251.527344 C 152.414062 251.300781 150.945312 251.335938 149.515625 251.027344 C 148.316406 250.765625 147.195312 250.378906 146.335938 249.421875 C 145.527344 248.511719 145.367188 247.429688 145.296875 246.292969 Z M 145.296875 246.300781 " fill-opacity="1" fill-rule="nonzero"/><path fill="#d8976a" d="M 127.386719 262.097656 C 130.257812 260.667969 133.292969 260.132812 136.492188 260.363281 C 137.652344 260.449219 138.773438 260.722656 139.90625 260.921875 C 140.316406 265.957031 140.113281 271.003906 140.035156 276.046875 C 139.992188 278.949219 139.9375 281.851562 139.957031 284.746094 C 139.972656 286.625 140.175781 288.503906 140.289062 290.386719 C 140.132812 290.527344 140.070312 290.703125 140.046875 290.914062 C 139.851562 292.785156 138.570312 293.75 136.683594 293.503906 C 134.632812 293.238281 133.527344 291.921875 132.816406 290.136719 C 132.695312 289.835938 132.722656 289.449219 132.308594 289.335938 C 132.257812 287.636719 131.824219 285.996094 131.574219 284.328125 C 130.824219 279.292969 129.957031 274.273438 128.90625 269.292969 C 128.464844 267.203125 127.96875 265.117188 127.503906 263.027344 C 127.441406 262.722656 127.421875 262.414062 127.386719 262.109375 Z M 127.386719 262.097656 " fill-opacity="1" fill-rule="nonzero"/><path fill="#222222" d="M 183.539062 165.28125 C 183.269531 164.019531 182.988281 162.867188 183.953125 161.640625 C 185.566406 159.589844 185.25 156.578125 183.4375 154.632812 C 183.03125 154.191406 182.578125 153.765625 181.902344 153.964844 C 181.179688 154.175781 180.804688 154.730469 180.636719 155.429688 C 180.558594 155.753906 180.558594 156.105469 180.515625 156.4375 C 180.488281 156.652344 180.480469 156.90625 180.179688 156.949219 C 179.882812 156.984375 179.699219 156.832031 179.585938 156.570312 C 179.566406 156.519531 179.53125 156.472656 179.515625 156.414062 C 178.910156 154.210938 177.164062 153.148438 175.253906 152.371094 C 171.777344 150.964844 168.339844 151.335938 164.992188 152.9375 C 163.921875 153.441406 163.816406 154.429688 163.703125 155.421875 C 163.640625 156.035156 163.816406 156.660156 163.640625 157.273438 C 163.183594 157.273438 163.121094 156.902344 163.015625 156.589844 C 161.945312 153.414062 162.347656 150.476562 164.667969 148 C 167.671875 144.789062 171.28125 142.9375 175.832031 143.511719 C 176.882812 143.648438 177.882812 143.9375 178.8125 144.4375 C 179.21875 144.65625 179.417969 144.589844 179.714844 144.238281 C 181.066406 142.597656 182.898438 142.097656 184.882812 142.871094 C 186.988281 143.691406 188.480469 145.105469 188.839844 147.4375 C 189.1875 149.683594 188.480469 151.5625 186.644531 152.949219 C 186.296875 153.210938 186.1875 153.492188 186.304688 153.894531 C 187.515625 157.941406 185.847656 161.40625 184.09375 164.859375 C 183.980469 165.082031 183.855469 165.316406 183.539062 165.300781 Z M 183.539062 165.28125 " fill-opacity="1" fill-rule="nonzero"/><path fill="#222222" d="M 153.851562 251.539062 C 154.710938 251.167969 155.5625 251.371094 156.410156 251.570312 C 155.324219 253.175781 154.585938 254.941406 154 256.773438 C 151.851562 263.484375 150.726562 270.414062 149.570312 277.34375 C 149.4375 278.167969 149.886719 278.054688 150.375 278.046875 C 158.703125 277.960938 167.035156 277.871094 175.367188 277.808594 C 179.234375 277.78125 183.101562 277.808594 187.136719 277.808594 C 184.390625 268.816406 182.101562 259.878906 178.394531 251.414062 C 179.183594 251.230469 179.972656 251.097656 180.761719 251.433594 C 182.113281 254.773438 183.410156 258.140625 184.480469 261.582031 C 185.332031 264.320312 186.199219 267.054688 187.058594 269.785156 C 187.539062 272.609375 188.058594 275.425781 188.488281 278.265625 C 189.050781 281.996094 189.488281 285.738281 189.515625 289.519531 C 189.09375 288.371094 189.109375 287.144531 188.980469 285.957031 C 188.777344 284.003906 188.3125 282.125 187.796875 280.246094 C 187.6875 279.820312 187.578125 279.652344 187.074219 279.75 C 185.847656 279.984375 184.59375 279.863281 183.355469 279.878906 C 172.199219 279.996094 161.035156 280.109375 149.878906 280.210938 C 149.324219 280.210938 149.125 280.355469 149.042969 280.941406 C 148.480469 284.914062 148.160156 288.90625 147.765625 292.898438 C 147.691406 293.707031 147.230469 294.152344 146.605469 294.046875 C 145.851562 293.921875 145.585938 293.398438 145.640625 292.6875 C 146.589844 280.90625 148.308594 269.257812 151.410156 257.828125 C 152 255.644531 152.875 253.570312 153.851562 251.535156 Z M 153.851562 251.539062 " fill-opacity="1" fill-rule="nonzero"/><path fill="#222222" d="M 132.308594 289.320312 C 132.722656 289.433594 132.695312 289.820312 132.816406 290.125 C 133.527344 291.90625 134.640625 293.222656 136.683594 293.492188 C 138.570312 293.738281 139.851562 292.78125 140.046875 290.898438 C 140.070312 290.695312 140.132812 290.519531 140.289062 290.371094 C 141.683594 291.101562 142.617188 292.273438 143.273438 293.652344 C 143.832031 294.820312 144.097656 296.097656 144.160156 297.398438 C 143.289062 298.792969 142.007812 299.609375 140.4375 299.984375 C 139.027344 300.320312 137.597656 300.476562 136.152344 300.308594 C 133.710938 300.019531 131.273438 299.757812 128.820312 300.257812 C 126.878906 300.660156 124.890625 300.671875 122.921875 300.695312 C 121.214844 300.714844 119.625 300.238281 118.25 299.179688 C 117.742188 298.792969 117.242188 298.390625 116.625 298.1875 C 116.949219 297.546875 117.601562 297.457031 118.1875 297.308594 C 120.054688 296.851562 121.90625 296.363281 123.625 295.460938 C 124.679688 294.90625 125.675781 294.28125 126.476562 293.386719 C 127.871094 291.835938 129.605469 290.714844 131.34375 289.617188 C 131.640625 289.433594 131.957031 289.328125 132.292969 289.308594 Z M 132.308594 289.320312 " fill-opacity="1" fill-rule="nonzero"/><path fill="#222222" d="M 189.988281 294.53125 C 192.328125 293.222656 194.785156 292.816406 197.390625 293.566406 C 197.730469 293.914062 197.96875 294.320312 198.125 294.785156 C 198.945312 297.277344 199.996094 299.667969 201.269531 301.960938 C 201.679688 302.703125 201.996094 303.484375 202.214844 304.308594 C 202.476562 305.273438 202.476562 306.195312 201.828125 307.027344 L 201.660156 307.203125 L 201.660156 307.171875 C 201.371094 307.328125 201.089844 307.492188 200.785156 307.632812 C 199.476562 308.257812 198.242188 308.527344 196.792969 307.765625 C 195.03125 306.847656 193.09375 307.03125 191.347656 307.898438 C 189.828125 308.652344 189.488281 308.75 188.085938 307.75 C 187.375 306.566406 187.328125 305.257812 187.601562 303.992188 C 188.261719 300.941406 189.03125 297.914062 189.769531 294.886719 C 189.796875 294.757812 189.910156 294.644531 189.988281 294.53125 Z M 189.988281 294.53125 " fill-opacity="1" fill-rule="nonzero"/><path fill="#f0f0f0" d="M 116.632812 298.195312 C 117.25 298.398438 117.742188 298.800781 118.257812 299.1875 C 119.632812 300.242188 121.222656 300.714844 122.925781 300.703125 C 124.898438 300.679688 126.886719 300.660156 128.828125 300.265625 C 131.28125 299.757812 133.71875 300.027344 136.160156 300.3125 C 137.613281 300.484375 139.042969 300.328125 140.441406 299.992188 C 142.011719 299.609375 143.296875 298.792969 144.167969 297.40625 C 144.386719 299.101562 143.332031 300.921875 141.738281 301.539062 C 139.984375 302.222656 138.183594 302.34375 136.328125 302.046875 C 132.816406 301.484375 129.308594 301.8125 125.785156 302.125 C 123.605469 302.3125 121.398438 302.632812 119.214844 302.195312 C 117.933594 301.941406 116.765625 301.433594 116.25 300.089844 C 115.992188 299.40625 115.898438 298.707031 116.632812 298.203125 Z M 116.632812 298.195312 " fill-opacity="1" fill-rule="nonzero"/><path fill="#f0f0f0" d="M 188.09375 307.75 C 189.488281 308.75 189.832031 308.652344 191.355469 307.898438 C 193.09375 307.03125 195.039062 306.847656 196.800781 307.765625 C 198.25 308.527344 199.480469 308.257812 200.792969 307.632812 C 201.089844 307.492188 201.375 307.328125 201.664062 307.171875 C 201.574219 307.597656 201.230469 307.820312 200.945312 308.089844 C 198.730469 310.203125 192.621094 311.242188 189.714844 309.378906 C 189.058594 308.957031 188.347656 308.574219 188.09375 307.75 Z M 188.09375 307.75 " fill-opacity="1" fill-rule="nonzero"/><path fill="#f0f0f0" d="M 201.660156 307.203125 L 201.828125 307.027344 Z M 201.660156 307.203125 " fill-opacity="1" fill-rule="nonzero"/><path fill="#fd5825" d="M 252.058594 111.160156 C 250.910156 110.773438 250.019531 110.113281 249.289062 109.21875 C 247.375 106.867188 246.089844 104.167969 244.9375 101.402344 C 244.457031 100.253906 243.9375 99.125 243.335938 98.035156 C 242.5625 96.625 241.359375 95.929688 239.824219 95.667969 C 238.421875 95.429688 237.007812 95.527344 235.605469 95.367188 C 234.871094 95.28125 234.148438 95.160156 233.527344 94.726562 C 233.34375 94.589844 233.132812 94.414062 233.28125 94.167969 C 233.398438 93.964844 233.632812 94.050781 233.816406 94.121094 C 234.9375 94.554688 236.105469 94.445312 237.253906 94.34375 C 238.21875 94.261719 239.175781 94.324219 240.125 94.421875 C 242.167969 94.632812 243.753906 95.613281 244.761719 97.429688 C 245.265625 98.34375 245.789062 99.261719 246.175781 100.226562 C 247.621094 103.808594 249.753906 107.015625 251.65625 110.34375 C 251.804688 110.605469 251.921875 110.886719 252.058594 111.160156 Z M 252.058594 111.160156 " fill-opacity="1" fill-rule="nonzero"/><path fill="#fd5825" d="M 149.535156 184.578125 C 147 183.582031 144.992188 182.152344 143.773438 179.792969 C 142.625 177.578125 143.175781 175.335938 143.773438 173.113281 C 143.816406 172.949219 143.90625 172.757812 144.113281 172.792969 C 144.371094 172.84375 144.34375 173.082031 144.332031 173.273438 C 144.296875 173.921875 144.261719 174.570312 144.195312 175.21875 C 143.929688 177.792969 144.808594 179.859375 146.886719 181.429688 C 148.515625 182.660156 149.105469 183.386719 149.535156 184.570312 Z M 149.535156 184.578125 " fill-opacity="1" fill-rule="nonzero"/><path fill="#fd5825" d="M 119.066406 126.253906 C 119.34375 124.746094 119.855469 123.515625 120.671875 122.410156 C 120.835938 122.183594 121.046875 121.921875 121.371094 122.121094 C 121.6875 122.308594 121.589844 122.605469 121.476562 122.871094 C 120.941406 124.125 120.160156 125.203125 119.066406 126.253906 Z M 119.066406 126.253906 " fill-opacity="1" fill-rule="nonzero"/><path fill="#fd5825" d="M 254.746094 115 C 254.746094 114.625 254.957031 114.515625 255.289062 114.550781 C 255.84375 114.613281 256.847656 115.816406 256.824219 116.394531 C 256.816406 116.660156 256.726562 116.808594 256.417969 116.761719 C 255.882812 116.675781 254.753906 115.515625 254.746094 115.007812 Z M 254.746094 115 " fill-opacity="1" fill-rule="nonzero"/><path fill="#fd5825" d="M 153.570312 184.941406 C 153.191406 184.902344 152.621094 184.984375 152.613281 184.421875 C 152.613281 183.871094 153.175781 183.859375 153.578125 183.859375 C 153.980469 183.859375 154.570312 183.902344 154.570312 184.394531 C 154.570312 184.898438 154.019531 184.929688 153.5625 184.941406 Z M 153.570312 184.941406 " fill-opacity="1" fill-rule="nonzero"/><path fill="#fd5825" d="M 129.214844 122.21875 C 129.074219 121.414062 127.816406 121.992188 127.816406 121.992188 C 127.710938 122.042969 127.605469 122.085938 127.503906 122.132812 C 127.441406 122.160156 127.378906 122.191406 127.316406 122.226562 C 126.808594 122.480469 126.265625 122.675781 125.816406 123 C 122.609375 125.335938 120.984375 128.65625 120.101562 132.40625 C 119.992188 132.878906 119.828125 133.402344 120.101562 133.878906 C 121.625 131.789062 122.722656 129.492188 123.984375 127.289062 C 124.933594 125.621094 126.175781 124.210938 127.90625 123.289062 C 128.117188 123.175781 128.328125 123.042969 128.519531 122.894531 C 128.773438 122.695312 129.003906 122.472656 129.210938 122.21875 Z M 129.214844 122.21875 " fill-opacity="1" fill-rule="nonzero"/></svg>