<svg xmlns="http://www.w3.org/2000/svg" xmlns:xlink="http://www.w3.org/1999/xlink" width="500" zoomAndPan="magnify" viewBox="0 0 375 374.999991" height="500" preserveAspectRatio="xMidYMid meet" version="1.0"><defs><clipPath id="47652becee"><path d="M 248.742188 203.671875 L 288.878906 203.671875 L 288.878906 242.257812 L 248.742188 242.257812 Z M 248.742188 203.671875 " clip-rule="nonzero"/></clipPath><clipPath id="a7165127a2"><path d="M 98.449219 266 L 284.707031 266 L 284.707031 277.039062 L 98.449219 277.039062 Z M 98.449219 266 " clip-rule="nonzero"/></clipPath><clipPath id="6508545f78"><path d="M 85.695312 79.039062 L 153 79.039062 L 153 132 L 85.695312 132 Z M 85.695312 79.039062 " clip-rule="nonzero"/></clipPath></defs><rect x="-37.5" width="450" fill="#ffffff" y="-37.499999" height="449.999989" fill-opacity="1"/><rect x="-37.5" width="450" fill="#ffffff" y="-37.499999" height="449.999989" fill-opacity="1"/><path fill="#454587" d="M 117.585938 180.40625 L 98.507812 197.761719 C 97.132812 199.015625 97.03125 201.144531 98.285156 202.519531 L 108.582031 213.851562 C 109.832031 215.226562 111.960938 215.328125 113.339844 214.078125 L 118.480469 209.398438 L 127.828125 210.847656 L 127.269531 201.402344 L 132.414062 196.722656 C 133.789062 195.46875 133.890625 193.339844 132.640625 191.960938 L 122.339844 180.632812 C 121.089844 179.257812 118.960938 179.15625 117.585938 180.40625 " fill-opacity="1" fill-rule="nonzero"/><path fill="#ffffff" d="M 111.015625 202.902344 Z M 113.109375 200.121094 C 112.832031 200.171875 112.839844 200.3125 112.390625 200.511719 L 111.589844 200.746094 C 111.207031 200.804688 110.945312 200.765625 110.796875 200.820312 L 110.796875 200.824219 C 110.832031 200.84375 110.863281 200.867188 110.898438 200.886719 C 110.675781 200.808594 110.5 200.683594 110.363281 200.542969 C 110.363281 200.359375 110.351562 200.164062 110.324219 199.96875 C 110.28125 199.484375 110.148438 198.972656 109.871094 198.535156 C 109.671875 197.929688 109.101562 197.417969 108.503906 197.046875 C 108.015625 196.742188 107.5625 196.539062 107.101562 196.894531 C 106.757812 197.164062 106.929688 197.253906 106.707031 197.300781 C 105.769531 197.484375 105.5625 198.105469 105.445312 198.292969 C 105.269531 198.582031 105.335938 198.941406 105.367188 199.097656 C 105.484375 199.722656 105.964844 200.882812 106.882812 201.28125 C 107.296875 201.597656 107.789062 201.773438 108.261719 201.859375 C 108.390625 201.890625 108.519531 201.914062 108.644531 201.933594 C 108.808594 202.097656 108.949219 202.316406 109.023438 202.59375 C 109.003906 202.558594 108.984375 202.523438 108.96875 202.488281 L 108.96875 202.484375 C 108.890625 202.644531 108.914062 202.945312 108.785156 203.382812 L 108.550781 203.964844 C 108.285156 204.476562 108.128906 204.433594 108.050781 204.726562 C 107.6875 206.046875 110.363281 208.863281 110.734375 208.679688 L 116.789062 203.171875 C 117.007812 202.816406 114.460938 199.886719 113.109375 200.121094 " fill-opacity="1" fill-rule="nonzero"/><path fill="#ffffff" d="M 117.058594 190.113281 C 116.746094 190.398438 116.582031 190.726562 116.566406 191.09375 C 116.554688 191.464844 116.6875 191.800781 116.964844 192.109375 C 117.222656 192.390625 117.535156 192.539062 117.902344 192.546875 C 118.269531 192.558594 118.609375 192.421875 118.917969 192.140625 C 119.074219 191.996094 119.195312 191.839844 119.277344 191.675781 C 119.363281 191.507812 119.410156 191.339844 119.421875 191.167969 C 119.433594 190.996094 119.40625 190.828125 119.347656 190.660156 C 119.285156 190.492188 119.1875 190.335938 119.054688 190.1875 C 118.875 189.992188 118.671875 189.855469 118.441406 189.777344 C 118.210938 189.703125 117.972656 189.691406 117.730469 189.746094 C 117.488281 189.800781 117.265625 189.925781 117.058594 190.113281 Z M 122.191406 193.246094 C 121.957031 192.988281 121.695312 192.808594 121.414062 192.710938 C 121.128906 192.617188 120.84375 192.601562 120.558594 192.675781 C 120.269531 192.75 120.007812 192.894531 119.769531 193.113281 C 119.425781 193.421875 119.246094 193.792969 119.222656 194.230469 C 119.199219 194.664062 119.371094 195.085938 119.742188 195.492188 C 119.976562 195.753906 120.238281 195.933594 120.527344 196.035156 C 120.816406 196.132812 121.105469 196.152344 121.390625 196.089844 C 121.675781 196.03125 121.929688 195.894531 122.160156 195.683594 C 122.394531 195.472656 122.554688 195.226562 122.640625 194.949219 C 122.726562 194.667969 122.734375 194.378906 122.660156 194.082031 C 122.582031 193.785156 122.425781 193.507812 122.191406 193.246094 Z M 115.597656 193.195312 C 115.296875 192.863281 115.101562 192.464844 115.011719 192.007812 C 114.925781 191.546875 114.980469 191.066406 115.171875 190.570312 C 115.359375 190.074219 115.691406 189.613281 116.160156 189.183594 C 116.558594 188.824219 116.953125 188.558594 117.347656 188.390625 C 117.742188 188.21875 118.121094 188.136719 118.484375 188.132812 C 118.851562 188.132812 119.183594 188.203125 119.488281 188.34375 C 119.792969 188.484375 120.0625 188.683594 120.296875 188.941406 C 120.59375 189.265625 120.773438 189.636719 120.839844 190.046875 C 120.902344 190.457031 120.84375 190.894531 120.660156 191.359375 C 121.042969 191.210938 121.410156 191.144531 121.757812 191.152344 C 122.105469 191.160156 122.433594 191.238281 122.742188 191.386719 C 123.050781 191.535156 123.335938 191.753906 123.597656 192.039062 C 123.980469 192.460938 124.222656 192.933594 124.332031 193.460938 C 124.4375 193.988281 124.382812 194.527344 124.164062 195.078125 C 123.949219 195.628906 123.574219 196.144531 123.039062 196.632812 C 122.488281 197.136719 121.925781 197.46875 121.355469 197.632812 C 120.789062 197.796875 120.25 197.800781 119.742188 197.644531 C 119.234375 197.488281 118.789062 197.199219 118.40625 196.78125 C 117.59375 195.882812 117.457031 194.882812 118 193.78125 C 117.027344 194.082031 116.226562 193.886719 115.597656 193.195312 " fill-opacity="1" fill-rule="nonzero"/><path fill="#454587" d="M 262.160156 163.976562 L 238.40625 152.492188 C 236.691406 151.664062 234.628906 152.382812 233.800781 154.097656 L 226.988281 168.207031 C 226.160156 169.921875 226.878906 171.984375 228.59375 172.8125 L 235 175.90625 L 237.191406 185.339844 L 245.945312 181.199219 L 252.347656 184.292969 C 254.0625 185.121094 256.125 184.402344 256.953125 182.691406 L 263.765625 168.578125 C 264.59375 166.867188 263.875 164.804688 262.160156 163.976562 " fill-opacity="1" fill-rule="nonzero"/><path fill="#ffffff" d="M 234.910156 163.222656 C 235.15625 166.25 236.90625 169.726562 236.90625 169.726562 C 236.90625 169.726562 240.742188 168.933594 243.269531 167.234375 L 243.582031 167.011719 C 244.269531 166.503906 244.832031 165.921875 245.148438 165.265625 C 245.875 163.757812 245.246094 161.945312 243.738281 161.21875 C 242.832031 160.78125 241.8125 160.835938 240.988281 161.277344 C 240.820312 160.355469 240.230469 159.523438 239.324219 159.085938 C 237.816406 158.355469 236.007812 158.988281 235.28125 160.496094 C 234.949219 161.183594 234.847656 162.023438 234.890625 162.917969 L 234.910156 163.222656 " fill-opacity="1" fill-rule="nonzero"/><path fill="#ffffff" d="M 246.816406 171.914062 L 249.648438 173.28125 C 249.929688 173.417969 250.117188 173.582031 250.207031 173.769531 C 250.300781 173.957031 250.296875 174.148438 250.203125 174.347656 C 250.117188 174.523438 249.984375 174.644531 249.808594 174.710938 C 249.632812 174.777344 249.425781 174.753906 249.1875 174.636719 L 245.199219 172.710938 C 244.925781 172.578125 244.753906 172.402344 244.671875 172.179688 C 244.59375 171.957031 244.601562 171.742188 244.699219 171.542969 C 244.765625 171.410156 244.894531 171.261719 245.097656 171.09375 C 245.296875 170.925781 245.488281 170.808594 245.660156 170.742188 C 246.382812 170.476562 247.023438 170.257812 247.582031 170.089844 C 248.140625 169.917969 248.527344 169.820312 248.75 169.785156 C 249.144531 169.722656 249.496094 169.628906 249.792969 169.511719 C 250.09375 169.398438 250.347656 169.253906 250.558594 169.078125 C 250.765625 168.90625 250.921875 168.714844 251.027344 168.5 C 251.140625 168.269531 251.183594 168.035156 251.160156 167.800781 C 251.140625 167.566406 251.058594 167.351562 250.917969 167.160156 C 250.777344 166.964844 250.59375 166.816406 250.371094 166.707031 C 249.898438 166.476562 249.425781 166.503906 248.953125 166.789062 C 248.890625 166.828125 248.757812 166.945312 248.554688 167.148438 C 248.355469 167.347656 248.167969 167.488281 248 167.566406 C 247.832031 167.644531 247.644531 167.636719 247.4375 167.535156 C 247.257812 167.449219 247.136719 167.316406 247.074219 167.136719 C 247.011719 166.960938 247.03125 166.769531 247.128906 166.566406 C 247.25 166.316406 247.433594 166.082031 247.675781 165.867188 C 247.917969 165.648438 248.203125 165.484375 248.53125 165.371094 C 248.859375 165.257812 249.230469 165.214844 249.636719 165.246094 C 250.042969 165.273438 250.476562 165.398438 250.933594 165.621094 C 251.488281 165.886719 251.917969 166.203125 252.222656 166.566406 C 252.417969 166.804688 252.566406 167.070312 252.660156 167.363281 C 252.753906 167.660156 252.789062 167.964844 252.765625 168.28125 C 252.746094 168.601562 252.664062 168.902344 252.527344 169.1875 C 252.3125 169.632812 252.003906 169.988281 251.605469 170.246094 C 251.203125 170.507812 250.839844 170.683594 250.507812 170.78125 C 250.175781 170.878906 249.632812 171.015625 248.871094 171.199219 C 248.113281 171.378906 247.574219 171.542969 247.253906 171.691406 C 247.121094 171.746094 246.976562 171.820312 246.816406 171.914062 " fill-opacity="1" fill-rule="nonzero"/><path fill="#ffffff" d="M 253.277344 173.027344 L 255.609375 174.152344 L 257.128906 171.003906 Z M 254.535156 176.375 L 255.023438 175.367188 L 252.304688 174.050781 C 251.960938 173.886719 251.738281 173.683594 251.644531 173.445312 C 251.546875 173.207031 251.5625 172.953125 251.691406 172.6875 C 251.726562 172.617188 251.773438 172.554688 251.832031 172.496094 C 251.890625 172.4375 251.964844 172.382812 252.050781 172.328125 C 252.140625 172.277344 252.226562 172.226562 252.316406 172.179688 C 252.40625 172.132812 252.515625 172.078125 252.644531 172.011719 L 257.375 169.554688 C 257.683594 169.394531 257.925781 169.285156 258.101562 169.230469 C 258.277344 169.175781 258.453125 169.1875 258.621094 169.269531 C 259.171875 169.535156 259.292969 169.984375 258.988281 170.613281 L 256.960938 174.808594 L 257.195312 174.917969 C 257.476562 175.054688 257.679688 175.199219 257.8125 175.355469 C 257.941406 175.515625 257.945312 175.71875 257.820312 175.976562 C 257.71875 176.1875 257.578125 176.304688 257.394531 176.335938 C 257.210938 176.367188 256.980469 176.3125 256.707031 176.179688 L 256.378906 176.019531 L 255.890625 177.03125 C 255.753906 177.308594 255.59375 177.484375 255.40625 177.5625 C 255.21875 177.636719 255.019531 177.625 254.816406 177.527344 C 254.613281 177.429688 254.484375 177.277344 254.425781 177.082031 C 254.367188 176.878906 254.40625 176.644531 254.535156 176.375 " fill-opacity="1" fill-rule="nonzero"/><g clip-path="url(#47652becee)"><path fill="#454587" d="M 287.523438 222.582031 L 265.601562 204.628906 C 264.019531 203.332031 261.6875 203.566406 260.394531 205.148438 L 249.738281 218.167969 C 248.445312 219.75 248.675781 222.082031 250.257812 223.375 L 256.167969 228.21875 L 256.09375 238.617188 L 266.269531 236.488281 L 272.179688 241.332031 C 273.761719 242.625 276.09375 242.394531 277.386719 240.8125 L 288.042969 227.792969 C 289.335938 226.210938 289.101562 223.878906 287.523438 222.582031 " fill-opacity="1" fill-rule="nonzero"/></g><path fill="#ffffff" d="M 264.613281 222.765625 C 265.882812 222.648438 267.046875 222.097656 267.851562 221.113281 C 269.636719 218.933594 269.003906 215.464844 266.441406 213.367188 C 263.882812 211.269531 260.355469 211.332031 258.574219 213.511719 C 256.792969 215.691406 257.421875 219.160156 259.984375 221.257812 C 260.53125 221.707031 261.125 222.054688 261.734375 222.304688 L 263.566406 225.03125 L 264.613281 222.765625 " fill-opacity="1" fill-rule="nonzero"/><path fill="#ffffff" d="M 269.886719 227.964844 L 273.5 223.546875 C 272.164062 223.507812 271.351562 223.367188 271.070312 223.136719 C 270.929688 223.023438 270.855469 222.871094 270.839844 222.675781 C 270.824219 222.484375 270.871094 222.316406 270.992188 222.171875 C 271.125 222.007812 271.273438 221.929688 271.441406 221.933594 C 271.609375 221.941406 271.875 221.992188 272.238281 222.082031 C 272.78125 222.21875 273.25 222.28125 273.652344 222.269531 C 274.054688 222.257812 274.449219 222.199219 274.835938 222.097656 C 275.222656 221.992188 275.46875 221.933594 275.570312 221.921875 C 275.671875 221.90625 275.800781 221.960938 275.953125 222.085938 C 276.125 222.226562 276.207031 222.40625 276.203125 222.625 C 276.199219 222.839844 276.101562 223.066406 275.910156 223.300781 L 271.363281 228.855469 C 270.828125 229.507812 270.34375 229.652344 269.898438 229.289062 C 269.703125 229.125 269.597656 228.929688 269.585938 228.699219 C 269.578125 228.46875 269.675781 228.222656 269.886719 227.964844 " fill-opacity="1" fill-rule="nonzero"/><path fill="#ffffff" d="M 281.882812 229.019531 L 279.578125 227.132812 L 278.015625 228.476562 C 278.675781 228.609375 279.199219 228.832031 279.589844 229.148438 C 279.898438 229.402344 280.140625 229.699219 280.316406 230.039062 C 280.492188 230.375 280.597656 230.730469 280.632812 231.101562 C 280.667969 231.476562 280.628906 231.847656 280.515625 232.226562 C 280.402344 232.601562 280.210938 232.953125 279.945312 233.277344 C 279.5625 233.746094 279.109375 234.085938 278.582031 234.300781 C 278.058594 234.511719 277.503906 234.570312 276.921875 234.472656 C 276.34375 234.375 275.792969 234.113281 275.273438 233.6875 C 274.695312 233.214844 274.3125 232.722656 274.125 232.214844 C 273.941406 231.707031 273.886719 231.25 273.960938 230.851562 C 274.039062 230.453125 274.160156 230.148438 274.332031 229.941406 C 274.433594 229.816406 274.582031 229.738281 274.78125 229.710938 C 274.980469 229.683594 275.15625 229.734375 275.316406 229.867188 C 275.585938 230.089844 275.660156 230.410156 275.539062 230.832031 C 275.433594 231.226562 275.421875 231.59375 275.511719 231.933594 C 275.601562 232.273438 275.78125 232.554688 276.050781 232.777344 C 276.300781 232.980469 276.574219 233.097656 276.867188 233.121094 C 277.160156 233.144531 277.449219 233.085938 277.738281 232.941406 C 278.023438 232.800781 278.285156 232.582031 278.519531 232.296875 C 278.773438 231.984375 278.9375 231.675781 279.007812 231.363281 C 279.078125 231.054688 279.066406 230.769531 278.96875 230.511719 C 278.875 230.25 278.710938 230.027344 278.484375 229.84375 C 278.207031 229.617188 277.980469 229.488281 277.804688 229.457031 C 277.632812 229.425781 277.363281 229.40625 276.996094 229.390625 C 276.632812 229.375 276.378906 229.308594 276.234375 229.191406 C 276.074219 229.058594 275.980469 228.886719 275.953125 228.671875 C 275.921875 228.457031 275.96875 228.277344 276.089844 228.132812 C 276.101562 228.113281 276.207031 228.019531 276.410156 227.84375 L 278.71875 225.855469 C 278.992188 225.613281 279.242188 225.480469 279.46875 225.453125 C 279.695312 225.429688 279.945312 225.527344 280.226562 225.757812 L 282.789062 227.855469 C 283.292969 228.265625 283.386719 228.667969 283.070312 229.050781 C 282.933594 229.21875 282.761719 229.304688 282.554688 229.308594 C 282.347656 229.3125 282.121094 229.214844 281.882812 229.019531 " fill-opacity="1" fill-rule="nonzero"/><path fill="#f4b789" d="M 191.34375 182.058594 C 188.449219 182.058594 182.996094 178.960938 178.003906 173.871094 C 178.558594 178.257812 177.484375 183.632812 172.570312 188.453125 C 169.710938 191.261719 166.546875 190.867188 166.519531 192.214844 C 166.496094 193.722656 178.917969 202.019531 191.34375 202.019531 L 191.34375 182.058594 " fill-opacity="1" fill-rule="nonzero"/><path fill="#d69b74" d="M 216.164062 192.214844 C 216.136719 190.867188 212.972656 191.261719 210.113281 188.453125 C 205.171875 183.601562 204.113281 178.1875 204.691406 173.789062 C 199.65625 178.929688 194.167969 182.058594 191.34375 182.058594 L 191.34375 202.019531 C 203.765625 202.019531 216.191406 193.722656 216.164062 192.214844 " fill-opacity="1" fill-rule="nonzero"/><path fill="#c9e1ec" d="M 240.726562 249.382812 C 245.519531 248.058594 246.558594 203.019531 232.648438 194.496094 C 229.773438 192.734375 228.691406 194.019531 223.085938 192.222656 L 214.113281 187.996094 C 210.253906 185.488281 208.21875 183.121094 206.441406 182.429688 L 206.429688 182.457031 C 206.996094 184.199219 207.304688 186.058594 207.304688 187.984375 C 207.304688 197.0625 200.507812 200.597656 191.597656 202.019531 C 182.6875 200.597656 175.890625 197.0625 175.890625 187.984375 C 175.890625 186.058594 176.195312 184.199219 176.765625 182.457031 L 176.753906 182.429688 C 174.804688 183.1875 172.546875 185.960938 167.910156 188.722656 L 161.105469 191.886719 C 154.621094 194.175781 153.582031 192.632812 150.542969 194.496094 C 136.636719 203.019531 137.675781 248.058594 142.46875 249.382812 L 240.726562 249.382812 " fill-opacity="1" fill-rule="nonzero"/><path fill="#72412b" d="M 218.589844 128.566406 C 216.609375 121.644531 212.601562 115.136719 205.320312 114.558594 C 199.894531 114.128906 200.71875 116.457031 198.289062 114.984375 C 188.058594 108.804688 180.910156 112.773438 178.285156 113.542969 C 174.210938 114.742188 168.929688 120.222656 166.578125 127.085938 C 162.1875 139.917969 164.140625 147.578125 169.308594 156.761719 C 172.339844 173.613281 185.785156 178.808594 191.78125 178.808594 C 197.632812 178.808594 209.277344 177.457031 212.210938 160.472656 C 219.097656 157.027344 221.011719 137.035156 218.589844 128.566406 " fill-opacity="1" fill-rule="nonzero"/><path fill="#f4b789" d="M 191.777344 184.054688 C 185.914062 184.054688 168.929688 170.472656 168.929688 153.722656 C 168.929688 144.191406 172.207031 136.367188 177.359375 131.390625 C 181.261719 127.621094 186.4375 133.890625 191.875 133.890625 C 197.152344 133.890625 201.824219 127.496094 205.710938 131.054688 C 211.125 136.007812 214.625 143.972656 214.625 153.722656 C 214.625 170.472656 197.46875 184.054688 191.777344 184.054688 " fill-opacity="1" fill-rule="nonzero"/><path fill="#af7a56" d="M 185.792969 169.359375 C 187.601562 167.648438 188.835938 167.441406 189.652344 167.621094 C 190.5 167.804688 190.679688 168.355469 191.648438 168.457031 C 192.976562 168.597656 193.484375 167.648438 194.734375 167.621094 C 195.363281 167.605469 196.566406 168.144531 197.757812 169.359375 L 185.792969 169.359375 " fill-opacity="1" fill-rule="nonzero"/><path fill="#af7a56" d="M 185.792969 169.359375 C 187.601562 167.648438 188.835938 167.441406 189.652344 167.621094 C 190.5 167.804688 190.679688 168.355469 191.648438 168.457031 C 192.976562 168.597656 193.484375 167.648438 194.734375 167.621094 C 195.363281 167.605469 196.566406 168.144531 197.757812 169.359375 L 185.792969 169.359375 " fill-opacity="1" fill-rule="nonzero"/><path fill="#cc936d" d="M 185.800781 169.359375 C 185.847656 170.53125 188.503906 171.480469 191.777344 171.480469 C 195.050781 171.480469 197.710938 170.53125 197.757812 169.359375 L 185.800781 169.359375 " fill-opacity="1" fill-rule="nonzero"/><path fill="#724c33" d="M 176.035156 146.445312 C 175.769531 146.445312 175.511719 146.3125 175.363281 146.070312 C 175.140625 145.703125 175.257812 145.222656 175.625 144.996094 C 177.417969 143.902344 180.3125 142.65625 183.90625 142.925781 C 185.316406 143.03125 186.710938 143.363281 188.039062 143.917969 C 188.4375 144.085938 188.628906 144.542969 188.460938 144.941406 C 188.296875 145.339844 187.839844 145.527344 187.441406 145.363281 C 186.261719 144.875 185.035156 144.578125 183.789062 144.484375 C 180.609375 144.246094 178.039062 145.355469 176.441406 146.332031 C 176.3125 146.410156 176.171875 146.445312 176.035156 146.445312 " fill-opacity="1" fill-rule="nonzero"/><path fill="#724c33" d="M 207.519531 146.445312 C 207.382812 146.445312 207.242188 146.410156 207.113281 146.332031 C 205.515625 145.359375 202.945312 144.246094 199.765625 144.484375 C 198.519531 144.578125 197.289062 144.875 196.113281 145.363281 C 195.714844 145.527344 195.257812 145.339844 195.089844 144.941406 C 194.925781 144.542969 195.113281 144.085938 195.511719 143.917969 C 196.84375 143.363281 198.234375 143.03125 199.648438 142.925781 C 203.242188 142.65625 206.132812 143.902344 207.925781 144.996094 C 208.296875 145.222656 208.414062 145.703125 208.1875 146.070312 C 208.039062 146.3125 207.785156 146.445312 207.519531 146.445312 " fill-opacity="1" fill-rule="nonzero"/><path fill="#017293" d="M 185.363281 150.914062 C 185.363281 152.933594 183.726562 154.570312 181.707031 154.570312 C 179.6875 154.570312 178.050781 152.933594 178.050781 150.914062 C 178.050781 148.894531 179.6875 147.253906 181.707031 147.253906 C 183.726562 147.253906 185.363281 148.894531 185.363281 150.914062 " fill-opacity="1" fill-rule="nonzero"/><path fill="#017293" d="M 205.144531 150.914062 C 205.144531 152.933594 203.507812 154.570312 201.488281 154.570312 C 199.46875 154.570312 197.832031 152.933594 197.832031 150.914062 C 197.832031 148.894531 199.46875 147.253906 201.488281 147.253906 C 203.507812 147.253906 205.144531 148.894531 205.144531 150.914062 " fill-opacity="1" fill-rule="nonzero"/><path fill="#cd3636" d="M 232.648438 194.496094 C 229.773438 192.734375 228.691406 194.019531 223.085938 192.222656 L 214.113281 187.996094 C 213.699219 187.726562 213.304688 187.457031 212.929688 187.195312 L 191.597656 235.074219 L 170.261719 187.195312 C 169.550781 187.695312 168.773438 188.210938 167.910156 188.722656 L 161.105469 191.886719 C 154.621094 194.175781 153.582031 192.632812 150.542969 194.496094 C 136.636719 203.019531 137.675781 248.058594 142.46875 249.382812 L 240.726562 249.382812 C 245.519531 248.058594 246.558594 203.019531 232.648438 194.496094 " fill-opacity="1" fill-rule="nonzero"/><path fill="#938f89" d="M 239.234375 266.03125 L 143.996094 266.03125 C 142.835938 266.03125 141.894531 265.09375 141.894531 263.929688 L 141.894531 261.253906 L 241.335938 261.253906 L 241.335938 263.929688 C 241.335938 265.09375 240.394531 266.03125 239.234375 266.03125 " fill-opacity="1" fill-rule="nonzero"/><path fill="#bcb7af" d="M 241.3125 259.460938 L 241.3125 206.085938 C 241.3125 201.847656 237.878906 198.410156 233.644531 198.410156 L 149.550781 198.410156 C 145.316406 198.410156 141.878906 201.847656 141.878906 206.085938 L 141.878906 263.714844 C 141.886719 264.996094 142.929688 266.03125 144.210938 266.03125 L 148.464844 266.03125 L 148.464844 263.714844 L 234.765625 263.714844 L 234.765625 266.03125 L 238.996094 266.03125 C 240.285156 266.03125 241.332031 264.984375 241.328125 263.691406 L 241.3125 259.460938 " fill-opacity="1" fill-rule="nonzero"/><path fill="#dad7d3" d="M 241.3125 210.773438 C 241.3125 206.535156 237.878906 203.097656 233.644531 203.097656 L 149.550781 203.097656 C 145.316406 203.097656 141.878906 206.535156 141.878906 210.773438 L 141.878906 206.085938 C 141.878906 201.847656 145.316406 198.410156 149.550781 198.410156 L 233.644531 198.410156 C 237.878906 198.410156 241.3125 201.847656 241.3125 206.085938 L 241.3125 210.773438 " fill-opacity="1" fill-rule="nonzero"/><path fill="#ffffff" d="M 198.335938 231.0625 C 198.335938 234.773438 195.324219 237.785156 191.613281 237.785156 C 187.902344 237.785156 184.894531 234.773438 184.894531 231.0625 C 184.894531 227.351562 187.902344 224.339844 191.613281 224.339844 C 195.324219 224.339844 198.335938 227.351562 198.335938 231.0625 " fill-opacity="1" fill-rule="nonzero"/><path fill="#202526" d="M 234.789062 263.699219 L 148.425781 263.699219 L 148.425781 261.90625 L 234.789062 261.90625 L 234.789062 263.699219 " fill-opacity="1" fill-rule="nonzero"/><g clip-path="url(#a7165127a2)"><path fill="#aa625c" d="M 279.167969 277.042969 L 104.027344 277.042969 C 100.988281 277.042969 98.523438 274.578125 98.523438 271.539062 C 98.523438 268.496094 100.988281 266.03125 104.027344 266.03125 L 279.167969 266.03125 C 282.207031 266.03125 284.667969 268.496094 284.667969 271.539062 C 284.667969 274.578125 282.207031 277.042969 279.167969 277.042969 " fill-opacity="1" fill-rule="nonzero"/></g><g clip-path="url(#6508545f78)"><path fill="#454587" d="M 117.988281 79.039062 C 135.785156 79.039062 150.210938 90.417969 150.210938 104.449219 C 150.210938 109.078125 148.640625 113.414062 145.902344 117.148438 L 152.675781 131.945312 L 132.160156 127.277344 C 127.882812 128.929688 123.074219 129.859375 117.988281 129.859375 C 100.191406 129.859375 85.765625 118.484375 85.765625 104.449219 C 85.765625 90.417969 100.191406 79.039062 117.988281 79.039062 " fill-opacity="1" fill-rule="nonzero"/></g><path fill="#ffffff" d="M 105.601562 101.859375 C 104.175781 102.730469 103.726562 104.59375 104.597656 106.019531 C 105.464844 107.441406 107.332031 107.894531 108.753906 107.023438 C 110.175781 106.152344 110.628906 104.289062 109.757812 102.863281 C 108.890625 101.441406 107.023438 100.988281 105.601562 101.859375 " fill-opacity="1" fill-rule="nonzero"/><path fill="#ffffff" d="M 110.515625 109.910156 C 107.503906 111.753906 103.550781 110.796875 101.710938 107.78125 C 99.867188 104.765625 100.824219 100.816406 103.835938 98.972656 C 106.851562 97.128906 110.800781 98.085938 112.644531 101.101562 C 114.484375 104.117188 113.53125 108.066406 110.515625 109.910156 Z M 114.851562 96.816406 L 113.519531 97.628906 C 112.972656 97.097656 112.371094 96.648438 111.726562 96.273438 L 112.082031 94.796875 C 112.289062 93.9375 111.761719 93.070312 110.898438 92.863281 L 109.148438 92.4375 C 108.285156 92.230469 107.421875 92.761719 107.210938 93.621094 L 106.871094 95.03125 C 106.101562 95.050781 105.332031 95.164062 104.578125 95.375 L 103.828125 94.152344 C 103.367188 93.398438 102.378906 93.160156 101.625 93.621094 L 100.085938 94.558594 C 99.332031 95.023438 99.09375 96.007812 99.554688 96.765625 L 100.300781 97.988281 C 99.769531 98.566406 99.316406 99.199219 98.949219 99.875 L 97.539062 99.535156 C 96.675781 99.324219 95.8125 99.855469 95.601562 100.714844 L 95.179688 102.46875 C 94.972656 103.332031 95.5 104.199219 96.363281 104.40625 L 97.839844 104.761719 C 97.875 105.507812 98.003906 106.25 98.222656 106.976562 L 96.894531 107.789062 C 96.136719 108.253906 95.898438 109.238281 96.359375 109.996094 L 97.300781 111.535156 C 97.761719 112.289062 98.75 112.527344 99.503906 112.066406 L 100.917969 111.203125 C 101.457031 111.6875 102.046875 112.101562 102.667969 112.4375 L 102.273438 114.085938 C 102.066406 114.945312 102.59375 115.8125 103.457031 116.019531 L 105.207031 116.445312 C 106.066406 116.652344 106.933594 116.121094 107.140625 115.261719 L 107.554688 113.546875 C 108.242188 113.515625 108.925781 113.402344 109.597656 113.214844 L 110.523438 114.730469 C 110.988281 115.484375 111.972656 115.722656 112.730469 115.261719 L 114.265625 114.320312 C 115.023438 113.859375 115.261719 112.871094 114.800781 112.117188 L 113.875 110.601562 C 114.351562 110.089844 114.761719 109.527344 115.105469 108.933594 L 116.816406 109.347656 C 117.675781 109.554688 118.542969 109.027344 118.75 108.164062 L 119.175781 106.414062 C 119.382812 105.550781 118.855469 104.683594 117.992188 104.476562 L 116.347656 104.078125 C 116.332031 103.367188 116.230469 102.65625 116.050781 101.953125 L 117.460938 101.09375 C 118.21875 100.628906 118.457031 99.640625 117.992188 98.886719 L 117.054688 97.347656 C 116.59375 96.589844 115.605469 96.355469 114.851562 96.816406 " fill-opacity="1" fill-rule="nonzero"/><path fill="#ffffff" d="M 127.429688 99.855469 C 126.628906 100.90625 126.832031 102.410156 127.882812 103.210938 C 128.929688 104.011719 130.433594 103.808594 131.234375 102.761719 C 132.035156 101.710938 131.832031 100.210938 130.785156 99.40625 C 129.734375 98.605469 128.230469 98.808594 127.429688 99.855469 " fill-opacity="1" fill-rule="nonzero"/><path fill="#ffffff" d="M 133.359375 104.386719 C 131.664062 106.605469 128.476562 107.03125 126.257812 105.335938 C 124.039062 103.640625 123.613281 100.453125 125.304688 98.234375 C 127.003906 96.011719 130.1875 95.585938 132.40625 97.28125 C 134.625 98.976562 135.054688 102.164062 133.359375 104.386719 Z M 132.808594 93.492188 L 132.058594 94.472656 C 131.503906 94.238281 130.929688 94.078125 130.351562 93.988281 L 130.191406 92.796875 C 130.097656 92.101562 129.460938 91.613281 128.765625 91.707031 L 127.351562 91.898438 C 126.660156 91.992188 126.171875 92.628906 126.265625 93.324219 L 126.417969 94.460938 C 125.855469 94.695312 125.320312 94.996094 124.824219 95.371094 L 123.921875 94.683594 C 123.367188 94.257812 122.570312 94.363281 122.144531 94.921875 L 121.28125 96.054688 C 120.855469 96.609375 120.960938 97.40625 121.519531 97.832031 L 122.421875 98.519531 C 122.191406 99.097656 122.039062 99.695312 121.960938 100.300781 L 120.824219 100.449219 C 120.128906 100.542969 119.644531 101.183594 119.734375 101.875 L 119.925781 103.289062 C 120.019531 103.984375 120.65625 104.472656 121.351562 104.378906 L 122.539062 104.21875 C 122.78125 104.753906 123.085938 105.269531 123.457031 105.742188 L 122.710938 106.722656 C 122.285156 107.277344 122.390625 108.074219 122.949219 108.5 L 124.082031 109.363281 C 124.636719 109.789062 125.433594 109.683594 125.855469 109.125 L 126.652344 108.085938 C 127.1875 108.285156 127.738281 108.421875 128.296875 108.492188 L 128.476562 109.820312 C 128.566406 110.515625 129.207031 111.003906 129.898438 110.910156 L 131.3125 110.71875 C 132.007812 110.628906 132.492188 109.988281 132.398438 109.292969 L 132.214844 107.914062 C 132.710938 107.695312 133.183594 107.414062 133.625 107.082031 L 134.742188 107.933594 C 135.300781 108.359375 136.09375 108.253906 136.519531 107.695312 L 137.382812 106.5625 C 137.808594 106.007812 137.703125 105.210938 137.144531 104.785156 L 136.03125 103.933594 C 136.234375 103.417969 136.378906 102.890625 136.460938 102.351562 L 137.839844 102.167969 C 138.535156 102.074219 139.023438 101.4375 138.929688 100.742188 L 138.738281 99.328125 C 138.648438 98.632812 138.007812 98.148438 137.316406 98.238281 L 135.988281 98.417969 C 135.773438 97.898438 135.496094 97.402344 135.160156 96.9375 L 135.957031 95.894531 C 136.378906 95.339844 136.273438 94.542969 135.71875 94.121094 L 134.585938 93.253906 C 134.027344 92.828125 133.234375 92.933594 132.808594 93.492188 " fill-opacity="1" fill-rule="nonzero"/></svg>